<?xml version="1.0" encoding="utf-8"?>
<!-- Generator: Adobe Illustrator 24.0.0, SVG Export Plug-In . SVG Version: 6.00 Build 0)  -->
<svg version="1.1" id="Capa_1" xmlns="http://www.w3.org/2000/svg" xmlns:xlink="http://www.w3.org/1999/xlink" x="0px" y="0px"
	 viewBox="0 0 228.7 64.4" style="enable-background:new 0 0 228.7 64.4;" xml:space="preserve">
<style type="text/css">
	.st0{fill:#FFFFFF;}
	.st1{fill:#53B4BA;}
	.st2{fill:#F38317;}
</style>
<g>
	<g>
		<path class="st0" d="M64.2,53.3c0,0-0.2-0.1-0.3,0v0c-0.1,0-0.1,0.1,0.1,0.1C64.1,53.4,64.2,53.4,64.2,53.3z"/>
		<path class="st0" d="M65.6,54.2c0,0-0.2-0.1-0.3,0v0c-0.1,0-0.1,0.1,0.1,0.1C65.6,54.3,65.7,54.3,65.6,54.2z"/>
		<path class="st0" d="M68,56.9c-0.1,0.2,0.2,0.1,1.1-0.1c0.3-0.1,0.2-0.1-0.4-0.1C68.4,56.7,68,56.8,68,56.9z"/>
		<path class="st0" d="M69.8,56.8c-0.1,0,0,0.1,0.2,0.1c0.2,0,0.3,0,0.2-0.1C70.1,56.8,69.9,56.8,69.8,56.8z"/>
		<path class="st0" d="M44.4,51c-2.8,0.2-3,0.3-2.6,0.4c0.2,0.1,0.6,0.1,0.8,0c0.4-0.1,3-0.2,5.7-0.2c0.5,0,0.6-0.1,0.5-0.2
			C48.6,50.9,45.9,50.8,44.4,51z"/>
		<path class="st0" d="M49.5,55.1c-0.2,0,0,0.1,0.4,0.1c0.4,0,0.6,0,0.4-0.1C50.1,55,49.7,55,49.5,55.1z"/>
		<path class="st0" d="M48,51.5c-0.2,0.1-0.1,0.1,0.1,0.1c0.2,0,0.5-0.1,0.7-0.1c0.2-0.1,0.2-0.1-0.1-0.1
			C48.4,51.4,48.1,51.4,48,51.5z"/>
		<path class="st0" d="M46.8,55.2L46.8,55.2C46.7,55.3,46.8,55.3,46.8,55.2c0.2,0.1,0.3,0.1,0.3,0C47.1,55.2,46.9,55.2,46.8,55.2z"
			/>
		<path class="st0" d="M81.1,54.2c-0.1,0-0.3,0-0.4,0c-0.1,0,0,0.1,0.2,0.1S81.2,54.2,81.1,54.2z"/>
		<path class="st0" d="M74.8,54.9c0,0.1,0.1,0.1,0.2,0.1c0,0,0.1-0.1,0.1-0.1s-0.1-0.1-0.2-0.1C74.8,54.7,74.8,54.8,74.8,54.9z"/>
		<path class="st0" d="M55.7,48.1c0.1,0,0.3-0.1,0.3-0.1c0.1-0.2-0.1-0.2-0.4,0h0C55.5,48.1,55.5,48.1,55.7,48.1z"/>
		<path class="st0" d="M80.6,55.2c0.1,0,0.2-0.1,0.2-0.1s-0.1-0.1-0.1-0.1S80.5,55,80.5,55S80.5,55.2,80.6,55.2z"/>
		<path class="st0" d="M74.4,54.9c-0.1,0-0.4,0-0.5,0c-0.1,0,0,0.1,0.3,0.1S74.6,55,74.4,54.9z"/>
		<path class="st0" d="M73.4,55c0-0.1-0.5-0.1-1-0.1c-0.5,0-1.3-0.1-1.8-0.1c-1.6-0.3-15.3-0.2-15,0.1c0.1,0.1,5.5,0.1,12.7,0.2
			c1.7,0,3.2,0.1,3.3,0.2c0.1,0.1,0.3,0.1,0.5,0.1s0.5-0.1,0.8-0.1C73.2,55.2,73.4,55.1,73.4,55z"/>
		<path class="st0" d="M73.2,56.2c0-0.1-0.1-0.1-0.1-0.1s-0.1,0.1-0.1,0.1c0,0.1,0.1,0.1,0.1,0.1S73.2,56.3,73.2,56.2z"/>
		<path class="st0" d="M28.5,45.3c-0.1,0-0.2,0.1-0.2,0.1c0,0.1,0,0.1,0.1,0.1s0.2-0.1,0.2-0.1S28.6,45.3,28.5,45.3z"/>
		<path class="st0" d="M69.2,50.9c0.7-0.2,0.7-0.2,0.3-0.3c-0.4-0.1-2.3,0.3-2.6,0.5C66.7,51.3,68.3,51.1,69.2,50.9z"/>
		<path class="st0" d="M55.5,45.4c-0.4-0.1-0.7,0-0.7,0.1v0c0,0.1,0.3,0.1,0.7,0.1C56.5,45.6,56.4,45.6,55.5,45.4z"/>
		<path class="st0" d="M55.8,50.9C55.7,51,55.7,51.1,56,51c0.5-0.1,0.6-0.2,0.3-0.2C56.2,50.8,55.9,50.8,55.8,50.9z"/>
		<path class="st0" d="M59,49c0-0.1-0.1-0.1-0.1-0.1s-0.1,0.1-0.1,0.1c0,0.1,0.1,0.1,0.1,0.1S59,49.1,59,49z"/>
		<path class="st0" d="M64.1,51.1c0.2-0.1,0-0.1-0.5-0.1c-0.4,0-0.8,0.1-0.8,0.1C62.8,51.3,63.8,51.3,64.1,51.1z"/>
		<path class="st0" d="M35.5,44.5c-0.1,0,0,0.1,0.3,0.1c0.3,0,0.4,0,0.3-0.1C35.8,44.5,35.6,44.5,35.5,44.5z"/>
		<path class="st0" d="M73.2,50c-0.1-0.3-0.3-0.3-0.3,0.1c0,0.2,0.1,0.3,0.2,0.3C73.3,50.3,73.3,50.3,73.2,50z"/>
		<path class="st0" d="M77.6,53.5c0,0-0.2-0.1-0.3,0v0c-0.1,0-0.1,0.1,0.1,0.1C77.6,53.6,77.6,53.5,77.6,53.5z"/>
		<path class="st0" d="M64.7,51c0,0-0.2-0.1-0.3,0v0c-0.1,0-0.1,0.1,0.1,0.1C64.7,51.1,64.8,51,64.7,51z"/>
		<path class="st0" d="M54.6,48.3c-0.3-0.1-0.8,0.1-1.8,0.7c-0.3,0.2-0.7,0.3-0.8,0.3c-0.2,0-0.6,0.1-0.9,0.3l0,0l-0.5,0.3l0.7-0.1
			c0.4-0.1,0.8-0.2,0.9-0.2c0.4-0.2,2.4-0.3,4.2-0.3c0.9,0,1.5,0,1.4,0c-0.1,0-0.1-0.1-0.1-0.2c0-0.1-0.2-0.1-0.6-0.1
			c-0.5,0-0.6-0.1-0.6-0.2c0.1-0.1-0.2-0.1-1.3-0.1c-1.1,0.1-1.3,0-0.9-0.1C54.8,48.4,54.8,48.4,54.6,48.3z"/>
		<path class="st0" d="M58.8,46.6L58.8,46.6C58.7,46.6,58.7,46.6,58.8,46.6c0.2,0.1,0.3,0.1,0.3,0C59.1,46.5,58.9,46.5,58.8,46.6z"
			/>
		<path class="st0" d="M60.5,46.1c-0.4-0.2-2.6,0-2.4,0.2v0c0.1,0.1,0.5,0.1,0.9,0.1c0.4,0,1-0.1,1.2-0.1
			C60.7,46.2,60.7,46.2,60.5,46.1z"/>
		<path class="st0" d="M54.8,46.7c0.1,0,0.2-0.1,0.2-0.1c0-0.1,0-0.1-0.1-0.1c0,0-0.1,0.1-0.2,0.1C54.7,46.6,54.7,46.7,54.8,46.7z"
			/>
		<path class="st0" d="M29.8,45.2c-0.4,0-0.7,0.1-0.9,0.1c-0.3,0.2,0.8,0.2,1.2,0C30.4,45.2,30.3,45.2,29.8,45.2z"/>
		<path class="st0" d="M57.7,46.1c-0.1,0-0.4,0-0.5,0c-0.1,0,0,0.1,0.3,0.1C57.7,46.2,57.8,46.2,57.7,46.1z"/>
		<path class="st0" d="M58.4,45.4c-0.4,0-0.9,0.1-1.2,0.1c-0.3,0-0.5,0.1-0.5,0.2c0.1,0.2,1.8,0,2.1-0.2
			C59,45.4,58.8,45.4,58.4,45.4z"/>
		<path class="st0" d="M57.7,47.5c-0.1,0-0.3,0-0.4,0l0,0c-0.1,0-0.1,0.1,0.2,0.1C57.7,47.5,57.8,47.5,57.7,47.5z"/>
		<path class="st0" d="M57.3,50.7c0.2,0,0.4,0,0.3-0.1c-0.1,0-0.3,0-0.4,0h0C57,50.7,57.1,50.7,57.3,50.7z"/>
		<path class="st0" d="M93.6,54.6c0-0.1,0-0.1-0.1-0.1s-0.2,0.1-0.2,0.1c0,0.1,0,0.1,0.1,0.1S93.6,54.7,93.6,54.6z"/>
		<path class="st0" d="M110.7,53.4c0.5-0.1,0.2-0.1-1.1-0.1c-3.5,0.1-5.2,0.2-5.3,0.3C104.3,53.8,110,53.6,110.7,53.4z"/>
		<path class="st0" d="M105,53.1L105,53.1C104.8,53.3,104.8,53.3,105,53.1c0.2,0,0.5-0.1,0.7-0.1c0.2,0,0.4-0.1,0.4-0.2
			c0.1-0.2-0.1-0.2-0.6-0.2c-0.4,0-0.7,0.1-0.7,0.1s0.1,0.1,0.3,0.1C105.1,53,105.1,53,105,53.1z"/>
		<path class="st0" d="M100.2,53.4c-2.1,0.1-5.1,0.4-5.8,0.5c-0.7,0.1-0.7,0.2-0.4,0.3c0.3,0.1,0.3,0.1,0.1,0.2
			c-0.2,0.1-0.2,0.1-0.1,0.2v0c0.1,0.1,0.3,0.1,0.5,0.1c0.2,0,0.5-0.1,0.7-0.1c0.2,0,0.5-0.1,0.7-0.2c0.5-0.3,2.2-0.5,4.3-0.4
			c1.7,0,1.9,0,1.8-0.2c-0.2-0.2-0.1-0.2,0.4-0.2c0.3,0,0.7-0.1,0.9-0.1c0.4-0.1,0.4-0.1-0.1-0.1c-0.5,0-1.2,0-1.7,0.1
			C101.2,53.3,100.6,53.3,100.2,53.4z"/>
		<path class="st0" d="M106.7,53.1c0,0-0.1-0.1-0.1-0.2c-0.1,0-0.1,0-0.1,0.1c0,0.1,0.1,0.2,0.1,0.2S106.7,53.1,106.7,53.1z"/>
		<path class="st0" d="M75.7,53.8c0.3,0,0.5,0,0.3-0.1c-0.1,0-0.4,0-0.6,0v0C75.3,53.8,75.4,53.8,75.7,53.8z"/>
		<path class="st0" d="M109.7,56.5c0.2,0,0.2-0.1-0.1-0.2c-0.1-0.1-0.2,0-0.1,0.1C109.6,56.4,109.7,56.5,109.7,56.5z"/>
		<path class="st0" d="M111.3,52.6c-0.1,0-0.4,0-0.5,0c-0.1,0,0,0.1,0.3,0.1C111.3,52.7,111.4,52.6,111.3,52.6z"/>
		<path class="st0" d="M109.6,52.8c0-0.1-2.4,0-2.6,0.1c0,0,0.5,0,1.3,0C109,53,109.6,52.9,109.6,52.8z"/>
		<path class="st0" d="M84.4,53c-0.2,0-0.5,0.1-0.7,0.1c-0.4,0.1-0.4,0.1,0.1,0.1c0.2,0,0.6-0.1,0.7-0.1C84.8,53,84.8,53,84.4,53z"
			/>
		<path class="st0" d="M84.5,54c1.3,0,2.3,0,2.4,0.1v0c0.1,0.1,1.7,0,1.8-0.1c0.1-0.1-0.1-0.2-0.5-0.2c-0.2,0-0.6,0-0.9,0
			c-1.7-0.1-4,0-4.6,0.1C82.4,53.9,83,54,84.5,54z"/>
		<path class="st0" d="M82.3,56.8c0-0.1,0-0.1-0.1-0.1c-0.1,0-0.2,0.1-0.2,0.1c0,0.1,0.1,0.1,0.1,0.1C82.2,56.9,82.3,56.9,82.3,56.8
			z"/>
		<path class="st0" d="M109.6,54.6c-0.1,0-0.3,0-0.4,0c-0.1,0,0,0.1,0.2,0.1S109.7,54.7,109.6,54.6z"/>
		<path class="st0" d="M82.1,60.6c0.1,0,0.3-0.1,0.4-0.1c0.3-0.2,0-0.2-0.4,0C82,60.6,82,60.6,82.1,60.6z"/>
		<path class="st0" d="M90.5,56.5c-0.5-0.1-4.3-0.2-4.3,0c0,0.1,1.1,0.1,2.3,0.1C89.8,56.6,90.7,56.6,90.5,56.5z"/>
		<path class="st0" d="M91.6,54.7c0.3,0,0.5,0,0.3-0.1c-0.1,0-0.4,0-0.6,0v0C91.2,54.7,91.3,54.7,91.6,54.7z"/>
		<path class="st0" d="M89.5,59L89.5,59C89.3,59.1,89.4,59.1,89.5,59c0.2,0.1,0.3,0.1,0.3,0C89.7,59,89.6,59,89.5,59z"/>
		<path class="st0" d="M90.6,55.1c0,0,0.2,0.1,0.4,0.1s0.4-0.1,0.4-0.1C91.4,54.9,90.6,55,90.6,55.1z"/>
		<path class="st0" d="M110.8,54.1c-0.1,0-0.1,0.1,0.2,0.1c0.2,0,0.4,0,0.3-0.1C111.1,54,110.9,54,110.8,54.1z"/>
		<path class="st0" d="M108.1,56.5c0.2,0,0.3,0,0.2-0.1c-0.1,0-0.3,0-0.4,0C107.9,56.4,107.9,56.5,108.1,56.5z"/>
		<path class="st0" d="M111.9,52.4c-0.1,0,0,0.1,0.3,0.1s0.4,0,0.3-0.1C112.3,52.4,112.1,52.4,111.9,52.4z"/>
		<path class="st0" d="M101.6,56.5c0.3-0.1,0.3-0.1,0-0.1c-0.2,0-0.4,0.1-0.6,0.1c-0.3,0.1-0.3,0.1,0,0.1
			C101.1,56.6,101.4,56.6,101.6,56.5z"/>
		<path class="st0" d="M112.1,54.6c-0.1,0,0,0.1,0.2,0.1c0.2,0,0.3,0,0.2-0.1C112.4,54.6,112.2,54.6,112.1,54.6z"/>
		<path class="st0" d="M95.7,56.5l-0.6,0l0.6,0.1v0c0.3,0.1,0.6,0.1,0.6,0.1c0,0,0,0,0-0.1C96.3,56.6,96,56.5,95.7,56.5z"/>
		<path class="st0" d="M77.3,55.2L77.3,55.2C77.2,55.3,77.2,55.3,77.3,55.2c0.2,0.1,0.3,0.1,0.3,0C77.6,55.2,77.4,55.2,77.3,55.2z"
			/>
		<path class="st0" d="M78.9,54.2c-1.8,0-3.1,0.1-3,0.3v0c0,0.1,0.4,0.1,0.8,0c0.4,0,1.4-0.1,2.2-0.2l1.5-0.1L78.9,54.2z"/>
		<path class="st0" d="M113.4,53.9c-0.2,0-0.5,0-0.7,0v0c-0.2,0-0.1,0.1,0.3,0.1C113.4,54,113.5,53.9,113.4,53.9z"/>
		<path class="st0" d="M78,55.2c-0.2,0.1,0.1,0.1,0.7,0.1c1,0,1,0,0.4-0.1c-1.3-0.2-1.4-0.2-1.1-0.2C78.3,55.1,78.3,55.1,78,55.2z"
			/>
		<path class="st0" d="M97.1,56.6c0.1,0.1,3.4,0,3.5-0.1c0,0,0-0.1,0-0.1C100.5,56.4,97,56.5,97.1,56.6z"/>
		<path class="st0" d="M104.8,54.8c-0.1,0,0,0.1,0.2,0.1s0.3,0,0.2-0.1C105,54.8,104.9,54.8,104.8,54.8z"/>
		<path class="st0" d="M105.5,56.5c0,0.1,0.2,0.1,0.5,0.1c0.8-0.1,0.9-0.2,0.1-0.2C105.8,56.4,105.5,56.4,105.5,56.5z"/>
		<path class="st0" d="M103.2,54.5c0,0.1,0.1,0.1,0.3,0.1c0.1,0,0.9-0.1,1.8-0.2c0.8-0.1,1.6-0.2,1.7-0.2c0.1-0.1-0.1-0.1-0.7-0.1
			c-0.5,0-1.4,0.1-2,0.2C103.7,54.3,103.2,54.4,103.2,54.5z"/>
		<path class="st0" d="M108.1,54.7c0,0-0.2-0.1-0.3,0v0c-0.1,0-0.1,0.1,0.1,0.1C108.1,54.7,108.1,54.7,108.1,54.7z"/>
		<path class="st0" d="M103.6,55.4c0,0-0.2-0.1-0.3,0v0c-0.1,0-0.1,0.1,0.1,0.1C103.6,55.5,103.7,55.4,103.6,55.4z"/>
		<path class="st0" d="M102,56.4L102,56.4C101.9,56.5,102,56.5,102,56.4c0.2,0.1,0.3,0.1,0.3,0C102.3,56.4,102.1,56.4,102,56.4z"/>
		<path class="st0" d="M101.2,55.4c-0.2,0-0.5,0-0.7,0v0c-0.2,0-0.1,0.1,0.3,0.1C101.2,55.4,101.4,55.4,101.2,55.4z"/>
		<path class="st0" d="M102.8,56.4c-0.2,0.1-0.1,0.1,0.2,0.1c0.2,0,0.4-0.1,0.5-0.1C103.5,56.2,103.1,56.2,102.8,56.4z"/>
		<path class="st0" d="M84,59.6c0,0-0.2-0.1-0.3,0v0c-0.1,0-0.1,0.1,0.1,0.1C83.9,59.7,84,59.7,84,59.6z"/>
		<path class="st0" d="M34.8,45.5l-1.2,0.1c-0.7,0-1.6,0.2-2.1,0.3c-0.5,0.2-1,0.3-1.2,0.3c-0.2,0,0.3,0.1,1,0.1
			c0.9,0,1.3-0.1,1.4-0.2c0.1-0.1,0.6-0.3,1.1-0.4L34.8,45.5z"/>
		<path class="st0" d="M192.1,52.6c0-0.2-0.8-0.3-0.9-0.1c0,0.1,0.2,0.2,0.4,0.2C191.9,52.7,192.1,52.6,192.1,52.6z"/>
		<path class="st0" d="M190.5,53.9c0,0-0.2-0.1-0.3,0v0c-0.1,0-0.1,0.1,0.1,0.1C190.4,54,190.5,54,190.5,53.9z"/>
		<path class="st0" d="M188.3,53.8c-0.8-0.1-1.2-0.1-1.4,0c-0.2,0.1,0,0.2,1.1,0.1l1.4,0L188.3,53.8z"/>
		<path class="st0" d="M189.3,52.5c0,0-0.5-0.1-1.3-0.1c-0.9,0-1.4,0.1-1.4,0.2C186.6,52.7,189.1,52.7,189.3,52.5z"/>
		<path class="st0" d="M202.3,52.5c0,0-0.2-0.1-0.3,0v0c-0.1,0-0.1,0.1,0.1,0.1C202.3,52.5,202.4,52.5,202.3,52.5z"/>
		<path class="st0" d="M204,52.4c-0.2,0-0.5,0-0.7,0c-0.2,0,0,0.1,0.3,0.1S204.2,52.5,204,52.4z"/>
		<path class="st0" d="M196.9,52.4c-0.2,0,0,0.1,0.4,0.1c0.4,0,0.6,0,0.4-0.1C197.5,52.4,197.1,52.4,196.9,52.4z"/>
		<path class="st0" d="M199,52.5c0.4,0,0.6,0,0.4-0.1c-0.2,0-0.5,0-0.7,0v0C198.4,52.5,198.6,52.5,199,52.5z"/>
		<path class="st0" d="M194.8,52.7c0.3,0,0.5,0,0.3-0.1c-0.1,0-0.4,0-0.6,0v0C194.3,52.6,194.4,52.6,194.8,52.7z"/>
		<path class="st0" d="M174.1,53.8c-1.4,0-3,0-3.5-0.1c-0.5-0.1-0.7,0-0.5,0c0.3,0.1,0.2,0.1-0.6,0.3c-0.7,0.1-0.1,0.1,3,0.1
			c2.4,0,4-0.1,4.1-0.2C176.7,53.8,175.9,53.8,174.1,53.8z"/>
		<path class="st0" d="M153.6,52.9c2.4,0,3-0.1,3.5-0.3c0.3-0.1,0.7-0.2,0.8-0.2c0.1,0,0.4,0,0.6-0.1c0.3-0.2-0.6-0.2-6.2-0.1
			c-3.6,0-7.1,0.1-7.7,0.2c-1.1,0.1-1,0.1,1,0.1c1.2,0,2.7,0.1,3.3,0.2c0.6,0.1,1.3,0.2,1.5,0.2C150.5,52.9,152,52.9,153.6,52.9z
			 M150.4,52.5c-0.4-0.1-0.3-0.1,0.5-0.2c0.5,0,1.2,0,1.4-0.1c0.3,0,0.5,0,0.6,0.1c0,0.1,0,0.1-0.1,0.1c-0.1,0-0.6,0-1.1,0.1
			C151.2,52.6,150.6,52.6,150.4,52.5z"/>
		<path class="st0" d="M148.8,53c-0.2,0-0.4,0.1-0.4,0.1c-0.1,0.2,0.2,0.2,0.5,0C149.1,53,149,53,148.8,53z"/>
		<path class="st0" d="M182.2,53.9c-0.8-0.1-1.8-0.1-2.2,0l-0.7,0.1L180,54c0.4,0.1,1,0.1,1.2,0c0.3,0,0.9-0.1,1.4-0.1
			C183.5,54,183.4,53.9,182.2,53.9z"/>
		<path class="st0" d="M170.5,14.9c0.2,0,0.2,0,0.2-0.1C170.6,14.8,170.5,14.8,170.5,14.9L170.5,14.9
			C170.3,14.9,170.3,14.9,170.5,14.9z"/>
		<path class="st0" d="M174.6,14.5c0.3,0.2,0.3,0.2,0.3,0c0-0.1-0.1-0.1-0.3-0.1C174.4,14.4,174.4,14.4,174.6,14.5z"/>
		<path class="st0" d="M171.4,14.6c-0.2,0-0.4,0.1-0.5,0.2c-0.2,0.2,2.2,0,2.5-0.2c0.4-0.2-0.5-0.4-1.6-0.3
			c-0.6,0.1-0.9,0.1-0.6,0.1C171.7,14.5,171.7,14.6,171.4,14.6z"/>
		<path class="st0" d="M189.7,11.6c0-0.1-0.3-0.1-0.6-0.1l-0.5,0l0.4,0.1v0C189.6,11.7,189.8,11.7,189.7,11.6z"/>
		<path class="st0" d="M206.4,50.7c-0.1,0,0,0.1,0.2,0.1s0.3,0,0.2-0.1C206.6,50.6,206.5,50.6,206.4,50.7z"/>
		<path class="st0" d="M168.5,14.8c-0.1,0.1,0.1,0.1,0.4,0.1c0.2,0,0.4-0.1,0.4-0.1c0-0.1-0.2-0.1-0.4-0.1
			C168.7,14.6,168.5,14.7,168.5,14.8z"/>
		<path class="st0" d="M192.3,12.1c-0.1,0-0.3,0-0.6,0c-0.3-0.1-0.7,0-1,0.1v0l-0.5,0.2l1.1,0c1.8,0,1.8,0,1.5-0.2
			C192.5,12.1,192.3,12,192.3,12.1z"/>
		<path class="st0" d="M159.3,14.6c0.2,0,0.2,0,0.2-0.1C159.5,14.5,159.4,14.5,159.3,14.6L159.3,14.6
			C159.1,14.6,159.2,14.6,159.3,14.6z"/>
		<path class="st0" d="M167.1,14.8c-0.2,0,0,0.1,0.3,0.1s0.5,0,0.3-0.1C167.5,14.8,167.2,14.8,167.1,14.8z"/>
		<path class="st0" d="M87.8,17.3c0,0.1,0.1,0.1,0.1,0.1c0.1,0,0.2-0.1,0.2-0.1c0-0.1,0-0.1-0.1-0.1C87.9,17.1,87.8,17.2,87.8,17.3z
			"/>
		<path class="st0" d="M196.8,13.9c0,0-0.4-0.1-0.8-0.1c-0.5-0.1-0.6,0-0.4,0l0,0C195.9,13.9,197,14,196.8,13.9z"/>
		<path class="st0" d="M203.2,15.6C203.1,15.6,203.1,15.7,203.2,15.6c0.2,0.1,0.3,0.1,0.3,0C203.4,15.5,203.3,15.5,203.2,15.6z"/>
		<path class="st0" d="M201.9,15.4c-0.1,0,0,0.1,0.2,0.1c0.2,0,0.3,0,0.2-0.1C202.1,15.4,202,15.4,201.9,15.4z"/>
		<path class="st0" d="M165.3,14.9c0,0-0.7-0.1-1.6-0.1c-2.5,0-6.1,0.2-6.1,0.3v0C157.5,15.2,165.2,15,165.3,14.9z"/>
		<path class="st0" d="M86.5,17.1L86.5,17.1c0,0.1,0.2,0.1,0.4,0.1c0.3,0,0.4,0,0.3-0.1C86.9,17,86.5,17,86.5,17.1z"/>
		<path class="st0" d="M201.2,14.4c-0.1-0.1-0.1-0.2-0.2-0.1c-0.1,0.1-0.1,0.2,0,0.3C201.1,14.9,201.3,14.7,201.2,14.4z"/>
		<path class="st0" d="M201.5,13.7c0-0.1-0.1-0.2-0.2-0.2c-0.1,0-0.1,0.1-0.1,0.2c0,0.1,0.1,0.2,0.2,0.2
			C201.5,13.9,201.6,13.8,201.5,13.7z"/>
		<path class="st0" d="M201.4,11.9c-0.1,0-0.3,0-0.4,0c-0.1,0-0.1,0.1,0.2,0.1C201.4,12,201.5,11.9,201.4,11.9z"/>
		<path class="st0" d="M161.5,14c-0.6-0.2-4.4,0.2-4.6,0.4c-0.1,0.2,0,0.2,1,0.1c0.6-0.1,1.8-0.1,2.6-0.1
			C161.8,14.4,162.3,14.2,161.5,14z"/>
		<path class="st0" d="M211.5,47.1c0.1-0.2-0.1-0.2-0.7,0c-0.3,0.1-0.3,0.1,0.1,0.1C211.2,47.2,211.5,47.2,211.5,47.1z"/>
		<path class="st0" d="M155.5,15.1c-0.3,0.1-0.2,0.1,0.4,0.1c0.4,0,0.8-0.1,0.8-0.1C156.7,14.9,156.1,14.9,155.5,15.1z"/>
		<path class="st0" d="M202.6,40.3c0.1,0,0.3-0.1,0.5-0.1c0.3-0.1,0.3-0.1,0-0.1c-0.2,0-0.4,0.1-0.5,0.1
			C202.4,40.3,202.4,40.3,202.6,40.3z"/>
		<path class="st0" d="M211.4,35.7L211.4,35.7c-0.2,0.1-0.2,0.1,0,0.1c0.1,0,0.3-0.1,0.3-0.1C211.9,35.5,211.7,35.5,211.4,35.7z"/>
		<path class="st0" d="M205.2,40.1c0,0.1,0,0.1,0.1,0.1c0.1,0,0.2-0.1,0.2-0.1c0-0.1,0-0.1-0.1-0.1C205.3,39.9,205.2,40,205.2,40.1z
			"/>
		<ellipse class="st0" cx="210" cy="56.7" rx="0.1" ry="0.1"/>
		<path class="st0" d="M207.2,43.6c0.2,0,0.2,0,0.2-0.1C207.3,43.4,207.2,43.4,207.2,43.6L207.2,43.6C207,43.5,207,43.6,207.2,43.6z
			"/>
		<path class="st0" d="M209.7,49.2c-0.1,0-0.1,0-0.1,0.1c0,0.1,0.1,0.2,0.1,0.2c0.1,0,0.1,0,0.1-0.1
			C209.9,49.4,209.8,49.3,209.7,49.2z"/>
		<path class="st0" d="M202.4,46.1c0,0.1,0.1,0.1,0.2,0.1c0,0,0.1-0.1,0.1-0.1s-0.1-0.1-0.2-0.1C202.4,45.9,202.4,46,202.4,46.1z"/>
		<path class="st0" d="M204.3,40.1L204.3,40.1c-0.1,0-0.1,0.1,0.2,0.1c0.2,0,0.4,0,0.3-0.1C204.6,40.1,204.4,40.1,204.3,40.1z"/>
		<path class="st0" d="M150.1,15.1c0.2,0,0.2,0,0.2-0.1C150.2,15,150.1,14.9,150.1,15.1L150.1,15.1C149.9,15,149.9,15.1,150.1,15.1z
			"/>
		<path class="st0" d="M142.9,15.6c1,0,1.7-0.2,1.9-0.3c0.2-0.2,0.2-0.2-0.6-0.1c-1.4,0.1-2.3,0.2-2.6,0.4
			C141.4,15.6,142,15.6,142.9,15.6z"/>
		<path class="st0" d="M143.8,14.4c0.2,0,0.4-0.1,0.4-0.1s-0.2-0.1-0.4-0.1c-0.2,0-0.4,0.1-0.4,0.1S143.6,14.4,143.8,14.4z"/>
		<path class="st0" d="M154.6,14.8c0.2,0,0.2,0,0.2-0.1C154.7,14.7,154.6,14.7,154.6,14.8L154.6,14.8
			C154.4,14.7,154.4,14.8,154.6,14.8z"/>
		<path class="st0" d="M102.7,17.9c0,0,0,0.1,0,0.2c0.1,0.1,0.2,0.1,0.3,0c0.1-0.1,0.3-0.2,0.3-0.2
			C103.4,17.7,102.9,17.8,102.7,17.9z"/>
		<path class="st0" d="M117.2,17c0,0.1,0.1,0.1,0.3,0c0.1-0.1,0.9-0.1,1.7-0.2c0.8,0,1.6-0.1,1.7-0.2c0.2-0.1-0.3-0.1-1.2-0.1
			C117.9,16.7,117.2,16.8,117.2,17z"/>
		<path class="st0" d="M109.4,17.9C109.3,18,109.3,18,109.4,17.9c0.2,0.1,0.3,0.1,0.3,0C109.6,17.9,109.5,17.9,109.4,17.9z"/>
		<path class="st0" d="M120.6,51.1L120.6,51.1c0,0.2,0,0.2,0.1,0.2C120.7,51.3,120.7,51.2,120.6,51.1
			C120.6,50.9,120.6,51,120.6,51.1z"/>
		<path class="st0" d="M126.7,55.3c0,0.1,0.1,0.1,0.2,0.1s0.1-0.1,0.1-0.1c0-0.1-0.1-0.1-0.2-0.1C126.7,55.2,126.6,55.2,126.7,55.3z
			"/>
		<path class="st0" d="M129.6,54.2c0,0-0.2-0.1-0.3,0v0c-0.1,0-0.1,0.1,0.1,0.1C129.6,54.3,129.7,54.3,129.6,54.2z"/>
		<path class="st0" d="M122.9,55.6L122.9,55.6c0,0,0.2,0.1,0.4,0.1c0.2,0,0.3-0.1,0.3-0.1C123.5,55.4,122.9,55.4,122.9,55.6z"/>
		<path class="st0" d="M127.5,54.1c-0.4,0.1-1.7,0.1-2.8,0.1c-1.7,0-2,0-2.1,0.2c-0.1,0.2,0,0.2,0.7,0.1c0.4,0,1.7-0.1,2.8-0.2
			c1.1-0.1,2-0.2,2.1-0.2C128.2,54,128,54,127.5,54.1z"/>
		<path class="st0" d="M128,53.1c-0.9,0-6.2,0.5-6.4,0.6c-0.1,0.1,0.2,0.1,0.9,0c0.6-0.1,1.8-0.2,2.8-0.2
			C127.3,53.4,128.8,53.2,128,53.1z"/>
		<path class="st0" d="M122.3,55.7c-0.1,0-0.4,0-0.6,0l0,0c-0.2,0-0.1,0.1,0.3,0.1C122.2,55.7,122.4,55.7,122.3,55.7z"/>
		<path class="st0" d="M121.3,54.4c0,0.1,0.2,0.1,0.4,0.1c0.2,0,0.4-0.1,0.4-0.1c0,0-0.2-0.1-0.4-0.1
			C121.4,54.3,121.3,54.4,121.3,54.4z"/>
		<path class="st0" d="M124.7,51.4c0,0-0.2-0.1-0.3,0l0,0c-0.1,0-0.1,0.1,0.1,0.1C124.7,51.5,124.8,51.5,124.7,51.4z"/>
		<path class="st0" d="M121.7,51.4c0,0-0.2-0.1-0.3,0l0,0c-0.1,0-0.1,0.1,0.1,0.1C121.6,51.5,121.7,51.5,121.7,51.4z"/>
		<path class="st0" d="M129.2,51.2c-0.2-0.1-0.3-0.1-0.5,0c-0.2,0.1-0.2,0.1,0.3,0.1C129.4,51.4,129.4,51.3,129.2,51.2z"/>
		<path class="st0" d="M129.1,55.2c0.2,0,0.3,0,0.3-0.1c0,0-0.1-0.1-0.3-0.1c-0.2,0-0.3,0-0.3,0.1C128.8,55.1,128.9,55.2,129.1,55.2
			z"/>
		<path class="st0" d="M165.6,52.2c-0.1-0.2-0.6-0.1-0.6,0c0,0.1,0.2,0.1,0.4,0.1C165.5,52.3,165.6,52.3,165.6,52.2z"/>
		<path class="st0" d="M159.6,54.4c-0.2,0-0.3,0.1-0.3,0.1s0.1,0.1,0.3,0.1s0.3-0.1,0.3-0.1C159.9,54.4,159.7,54.4,159.6,54.4z"/>
		<path class="st0" d="M127.6,52.2c0.3,0,0.5,0,0.3-0.1c-0.1-0.1-0.3-0.1-0.5,0v0C127.2,52.2,127.2,52.2,127.6,52.2z"/>
		<path class="st0" d="M128.9,54c-0.1,0.1,0,0.1,0.3,0.1c0.3-0.1,0.3-0.1,0.1-0.1C129.2,53.9,129,53.9,128.9,54z"/>
		<path class="st0" d="M129.6,53c-0.2,0-0.5,0-0.7,0c-0.2,0,0,0.1,0.3,0.1S129.7,53.1,129.6,53z"/>
		<path class="st0" d="M165.9,50.9c0.2-0.1,0-0.1-0.5-0.1c-0.4,0-0.6,0-0.4,0.1c0.2,0,0.4,0.1,0.5,0.2v0c0.1,0.1,0.3,0.1,0.5,0.1
			l0.4,0l-0.4-0.1C165.6,51,165.6,51,165.9,50.9z"/>
		<path class="st0" d="M120.1,52c-0.2,0.1-0.2,0.1-0.1,0.1c0.1,0,0.3-0.1,0.4-0.1C120.7,51.8,120.4,51.8,120.1,52z"/>
		<path class="st0" d="M114.6,59.5L114.6,59.5C114.5,59.5,114.5,59.6,114.6,59.5c0.2,0.1,0.3,0.1,0.3,0
			C114.8,59.5,114.7,59.4,114.6,59.5z"/>
		<path class="st0" d="M118.5,52.8c0-0.1-0.7,0-1.3,0.3c-0.2,0.1-0.3,0.2-0.2,0.2C117.4,53.3,118.5,52.9,118.5,52.8z"/>
		<path class="st0" d="M114.9,54.7c0.8,0,1.1,0,0.7-0.1c-0.4,0-1,0-1.4,0C113.9,54.7,114.2,54.7,114.9,54.7z"/>
		<path class="st0" d="M115.2,51.2c0.2-0.1,0.2-0.1,0-0.1c-0.1,0-0.3,0.1-0.3,0.1h0C114.7,51.4,114.9,51.4,115.2,51.2z"/>
		<path class="st0" d="M92.4,60.5c1.6-0.3,5.7-0.5,14.4-0.6c2.5,0,5.2-0.1,5.9-0.2c0.7-0.1-3.8-0.1-10-0.1c-11,0-11.2,0-11.8,0.3
			c-0.6,0.3-0.7,0.5-0.2,0.5c0.5,0,0.2,0.2-1,0.8c-0.7,0.3-1.5,0.8-1.8,1.1c-0.7,0.6-0.5,0.6,0.3,0c0.4-0.2,0.8-0.5,1.1-0.6
			c0.2-0.1,0.4-0.2,0.4-0.3C89.6,61.2,90.8,60.7,92.4,60.5z"/>
		<ellipse class="st0" cx="83.6" cy="56.5" rx="0.1" ry="0.1"/>
		<path class="st0" d="M88.8,55.2c0.8,0,1.4-0.1,1.3-0.1c-0.2-0.1-7.9-0.1-8.1,0c0,0-0.1,0-0.2,0.1c-0.4,0.1-0.3,0.1,0.8,0.2v0
			c1.2,0.1,1.9,0.1,3.8-0.1C86.9,55.2,88,55.2,88.8,55.2z"/>
		<path class="st0" d="M85.1,55.7c0.2,0,0.4,0,0.3-0.1c-0.1,0-0.3,0-0.4,0v0C84.8,55.7,84.8,55.7,85.1,55.7z"/>
		<path class="st0" d="M117.4,54.5c-0.1,0-0.3,0-0.4,0c-0.1,0-0.1,0.1,0.2,0.1C117.4,54.6,117.5,54.5,117.4,54.5z"/>
		<path class="st0" d="M118.8,59.3c0-0.1-0.1-0.1-0.3-0.1c-0.3,0-0.3,0-0.1,0.1C118.7,59.5,118.8,59.5,118.8,59.3z"/>
		<path class="st0" d="M162.6,51.1L162.6,51.1C162.5,51.2,162.5,51.2,162.6,51.1c0.2,0.1,0.3,0.1,0.3,0
			C162.8,51.1,162.7,51.1,162.6,51.1z"/>
		<path class="st0" d="M83.6,55.9c0.1-0.2-0.1-0.2-0.7,0h0c-0.3,0.1-0.3,0.1,0.1,0.1C83.3,56.1,83.6,56,83.6,55.9z"/>
		<path class="st0" d="M117.1,59.4c0.2,0,0.3,0,0.2-0.1c-0.1,0-0.3,0-0.4,0C116.8,59.4,116.9,59.4,117.1,59.4z"/>
		<path class="st0" d="M118.2,51.3c0.5,0,0.5,0-0.1-0.1c-0.4-0.1-1-0.1-1.2-0.1c-0.5,0-0.4,0,0.1,0.1
			C117.3,51.3,117.9,51.3,118.2,51.3z"/>
		<path class="st0" d="M128.4,51.3c0,0-0.2-0.1-0.5-0.1c-0.3,0-0.5,0.1-0.4,0.1C127.5,51.5,128.4,51.4,128.4,51.3z"/>
		<path class="st0" d="M131.1,54.2c-0.1,0-0.3,0-0.4,0c-0.1,0,0,0.1,0.2,0.1C131.2,54.3,131.2,54.2,131.1,54.2z"/>
		<path class="st0" d="M138,51.9c-0.1,0,0,0.1,0.2,0.1c0.2,0,0.3,0,0.2-0.1C138.3,51.8,138.1,51.8,138,51.9z"/>
		<path class="st0" d="M140.1,53.7c0.3,0,0.5,0,0.3-0.1c-0.1,0-0.4,0-0.6,0v0C139.7,53.6,139.8,53.7,140.1,53.7z"/>
		<path class="st0" d="M143.3,53.7c0-0.1-0.2-0.2-0.6-0.2c-0.8-0.1-1,0-0.9,0.2C141.8,53.9,143.2,53.9,143.3,53.7z"/>
		<path class="st0" d="M143.1,52.4c0,0-0.7-0.1-1.6-0.1c-1,0-1.6,0.1-1.6,0.1C139.9,52.7,142.9,52.6,143.1,52.4z"/>
		<path class="st0" d="M138.8,50.7c-0.1,0-0.3,0-0.4,0c-0.1,0-0.1,0.1,0.2,0.1C138.8,50.8,138.9,50.7,138.8,50.7z"/>
		<path class="st0" d="M136.9,53.6L136.9,53.6C136.7,53.7,136.8,53.7,136.9,53.6c0.2,0.1,0.3,0.1,0.3,0
			C137.1,53.6,137,53.6,136.9,53.6z"/>
		<path class="st0" d="M133.3,54.6c-0.1-0.1-0.5-0.1-0.5,0.1c0,0,0.1,0.1,0.3,0.1C133.3,54.7,133.4,54.7,133.3,54.6z"/>
		<path class="st0" d="M135.1,54.3c-0.2,0-0.5,0.1-0.7,0.1c-0.4,0.1-0.4,0.1-0.1,0.1c0.2,0,0.5-0.1,0.7-0.1
			C135.3,54.4,135.3,54.3,135.1,54.3z"/>
		<path class="st0" d="M132.4,53.8c-0.1,0-0.3,0-0.4,0c-0.1,0,0,0.1,0.2,0.1C132.5,53.8,132.5,53.8,132.4,53.8z"/>
		<path class="st0" d="M130,55.1L130,55.1c0,0.2,0.3,0.1,1.2-0.1c0.8-0.2,0.5-0.3-0.6-0.1C130.3,54.9,130,55,130,55.1z"/>
		<path class="st0" d="M138.8,52.6c-0.2-0.2-5.2,0-6.9,0.2l-1.7,0.2l2.6,0C135.9,52.8,138.9,52.7,138.8,52.6z"/>
		<path class="st0" d="M134,53.8c-0.1,0-0.4,0-0.6,0v0c-0.2,0-0.1,0.1,0.3,0.1S134.1,53.8,134,53.8z"/>
		<path class="st0" d="M132.2,54.7c0,0.1,0.2,0.1,0.2,0.1c0.1,0,0.1-0.1,0.1-0.1c0-0.1-0.1-0.1-0.2-0.1
			C132.2,54.6,132.1,54.7,132.2,54.7z"/>
		<path class="st0" d="M163,51.1L163,51.1c0,0.2,0.2,0.2,0.4,0c0.1-0.1,0.3-0.2,0.5-0.2c0.2,0-0.1-0.1-0.8-0.1c-0.6,0-1.1,0-1.2,0.1
			c0,0.1,0.2,0.1,0.5,0.1C162.8,50.9,163,51,163,51.1z"/>
		<path class="st0" d="M132.5,54.2c-0.1,0-0.4,0-0.5,0c-0.1,0,0,0.1,0.3,0.1C132.5,54.3,132.7,54.2,132.5,54.2z"/>
		<path class="st0" d="M138.7,52.2c0,0.1,0.3,0.1,0.5,0.1c1.5-0.2,3-0.4,3.8-0.4c0.5,0,1-0.1,1.2-0.1c0.1-0.1,0.2-0.1,0.1-0.1
			c-1.1-0.1-3.7,0-4.5,0.1C138.5,52,138.6,52,138.7,52.2z"/>
		<path class="st0" d="M135.9,51.1c0.2-0.1,0.1-0.1-0.3-0.1c-0.3,0-0.4,0.1-0.4,0.1C135.3,51.3,135.6,51.3,135.9,51.1z"/>
		<path class="st0" d="M139.4,51c0,0-0.2-0.1-0.3,0v0c-0.1,0-0.1,0.1,0.1,0.1C139.4,51.1,139.5,51,139.4,51z"/>
		<path class="st0" d="M155.9,54.6c-0.1,0,0,0.1,0.2,0.1c0.2,0,0.3,0,0.2-0.1C156.2,54.6,156,54.6,155.9,54.6z"/>
		<path class="st0" d="M155.6,51.5c0.1-0.1-0.2-0.1-0.6-0.1c-0.4,0-0.7,0.1-0.7,0.1s0.3,0.1,0.6,0.1
			C155.3,51.7,155.6,51.6,155.6,51.5z"/>
		<path class="st0" d="M152.1,51.5c0-0.2-0.4-0.2-1.3,0l0,0c-0.6,0.1-0.6,0.1,0.3,0.1C151.6,51.7,152.1,51.6,152.1,51.5z"/>
		<path class="st0" d="M161.2,51.2c0.3,0,0.5,0,0.3-0.1c-0.1,0-0.4,0-0.6,0v0C160.8,51.1,160.9,51.2,161.2,51.2z"/>
		<path class="st0" d="M160.2,51.6c-0.1,0-0.3,0-0.4,0c-0.1,0,0,0.1,0.2,0.1S160.3,51.6,160.2,51.6z"/>
		<path class="st0" d="M159.4,51.7c0-0.1-0.1-0.1-0.2-0.1c-0.1,0-0.2,0.1-0.2,0.1s0.1,0.1,0.2,0.1C159.3,51.8,159.4,51.7,159.4,51.7
			z"/>
		<path class="st0" d="M161.4,52.4c1.5,0,2.7,0,2.7,0.1c0.1,0.1,0.3,0.1,0.3-0.1c0-0.1-0.4-0.1-0.8-0.1c-0.5,0-0.7-0.1-0.7-0.2
			c0-0.1,0.1-0.3,0.3-0.3c0.2-0.1,0-0.1-0.5-0.2c-0.4-0.1-0.7-0.1-0.8,0c-0.1,0.1,0.1,0.2,0.5,0.3c0.2,0,0.3,0.1,0.3,0.1
			c0,0.1-0.2,0.1-0.3,0.1c-0.1,0-0.8,0.1-1.4,0.2c-0.7,0.1-1.3,0.1-1.4,0.1c-0.1,0-0.3,0-0.5,0.1C158.9,52.3,159.7,52.4,161.4,52.4z
			"/>
		<path class="st0" d="M148.9,51.6c-0.1,0-0.3,0-0.4,0c-0.1,0-0.1,0.1,0.2,0.1C148.9,51.6,149,51.6,148.9,51.6z"/>
		<path class="st0" d="M138.8,54.3l-0.6-0.1c-0.8-0.2-1.6-0.2-1.4,0c0.1,0.1,0,0.1-0.1,0.1c-0.1-0.1-0.2,0-0.2,0.1
			c0,0.1,0.2,0.2,0.7,0.1c0.4-0.1,0.9-0.1,1.2-0.1L138.8,54.3z"/>
		<path class="st0" d="M144.8,53.5c0.5,0,0.7,0,0.5-0.1c-0.2,0-0.6,0-0.9,0l0,0C144.1,53.5,144.3,53.5,144.8,53.5z"/>
		<polygon class="st0" points="136.5,54.3 136.5,54.3 136.5,54.3 		"/>
		<path class="st0" d="M146.1,53.3c0,0-0.2-0.1-0.3,0v0c-0.1,0-0.1,0.1,0.1,0.1C146.1,53.4,146.1,53.4,146.1,53.3z"/>
		<path class="st0" d="M147,53.3c-0.1,0,0,0.1,0.2,0.1s0.3,0,0.2-0.1C147.2,53.3,147.1,53.3,147,53.3z"/>
		<path class="st0" d="M147.9,51.6c-0.1,0-0.3,0-0.4,0c-0.1,0,0,0.1,0.2,0.1C147.9,51.6,148,51.6,147.9,51.6z"/>
		<path class="st0" d="M88.5,17.2C88.3,17.2,88.4,17.3,88.5,17.2c0.2,0.1,0.3,0.1,0.3,0C88.7,17.2,88.6,17.2,88.5,17.2z"/>
		<path class="st0" d="M102.5,52.1c-0.2,0-0.5,0-0.7,0c-0.2,0,0,0.1,0.3,0.1S102.7,52.2,102.5,52.1z"/>
		<path class="st0" d="M89.7,17c-0.1,0-0.2,0.1-0.2,0.1c0,0.1,0,0.1,0.1,0.1s0.2-0.1,0.2-0.1C89.8,17.1,89.7,17,89.7,17z"/>
		<path class="st0" d="M74.6,11.2c0,0-0.2-0.1-0.3,0v0c-0.1,0-0.1,0.1,0.1,0.1C74.5,11.2,74.6,11.2,74.6,11.2z"/>
		<path class="st0" d="M122.8,11.9c-0.1,0-0.3,0-0.4,0s-0.1,0.1,0.2,0.1C122.7,12,122.9,11.9,122.8,11.9z"/>
		<path class="st0" d="M112,15.5c-0.1,0.1,0,0.1,0.5,0.1c1.6-0.2,2.7-0.2,5.8-0.3c1.8,0,3.3-0.1,3.3-0.2c0.1-0.1-0.5-0.5-0.6-0.4
			c-0.1,0.1-3.5,0.4-6.3,0.5C113.2,15.3,112.1,15.4,112,15.5L112,15.5z"/>
		<path class="st0" d="M128.5,11.7c0-0.1,0-0.2,0-0.4c0-0.2,0-0.2-0.2,0c-0.1,0.1-0.2,0.3-0.1,0.4l0,0
			C128.2,11.9,128.5,11.9,128.5,11.7z"/>
		<path class="st0" d="M120.3,12.2c0.4,0,0.7-0.1,0.7-0.1c0-0.1-1.1-0.1-1.3,0.1C119.7,12.1,119.9,12.2,120.3,12.2z"/>
		<path class="st0" d="M115.1,11.5c0.5,0.1,3.6,0,3.7-0.1c0.2-0.2-0.4-0.3-1.2-0.3c-0.5,0-1.4,0-2,0.1
			C114.5,11.1,114.2,11.3,115.1,11.5z"/>
		<path class="st0" d="M113.6,12.2c0,0-0.2-0.1-0.3,0c-0.1,0-0.1,0.1,0.1,0.1C113.5,12.3,113.6,12.3,113.6,12.2z"/>
		<path class="st0" d="M131.5,11.9L131.5,11.9C131.4,12,131.4,12,131.5,11.9c0.2,0.1,0.3,0.1,0.3,0S131.6,11.9,131.5,11.9z"/>
		<path class="st0" d="M139.8,11.3l-0.8,0.2l0.8-0.1c0.7-0.1,1-0.2,0.9-0.3C140.6,11.2,140.2,11.2,139.8,11.3z"/>
		<path class="st0" d="M137.4,11.2c0.3,0,0.5,0,0.3-0.1c-0.1,0-0.4,0-0.6,0v0C137,11.2,137.1,11.2,137.4,11.2z"/>
		<path class="st0" d="M146.8,9.6L146.8,9.6C146.7,9.6,146.7,9.6,146.8,9.6c0.2,0.1,0.3,0.1,0.3,0C147.1,9.5,146.9,9.5,146.8,9.6z"
			/>
		<path class="st0" d="M138.2,11.6c-0.1,0-0.4,0-0.6,0v0c-0.2,0-0.1,0.1,0.3,0.1S138.3,11.6,138.2,11.6z"/>
		<path class="st0" d="M120.4,11.2c-0.1,0-0.4,0-0.5,0c-0.1,0,0,0.1,0.3,0.1S120.5,11.2,120.4,11.2z"/>
		<path class="st0" d="M133.2,11.8c0,0-0.2-0.1-0.3,0v0c-0.1,0-0.1,0.1,0.1,0.1C133.2,11.9,133.3,11.8,133.2,11.8z"/>
		<path class="st0" d="M132.3,11.9c0,0.1,0,0.1,0.1,0.1c0,0,0.1-0.1,0.2-0.1c0-0.1,0-0.1-0.1-0.1C132.3,11.7,132.3,11.8,132.3,11.9z
			"/>
		<path class="st0" d="M134.7,11.6c-0.1,0,0,0.1,0.2,0.1c0.2,0,0.3,0,0.2-0.1C134.9,11.6,134.8,11.6,134.7,11.6z"/>
		<path class="st0" d="M110,12.1L110,12.1c0,0.1,0.4,0.1,0.9,0.2c0.5,0,0.9,0,0.9-0.1c0-0.1-0.4-0.2-0.9-0.2
			C110.4,12,110,12.1,110,12.1z"/>
		<path class="st0" d="M99.7,10.7C99.6,10.8,99.6,10.8,99.7,10.7c0.2,0.1,0.3,0.1,0.3,0S99.8,10.7,99.7,10.7z"/>
		<path class="st0" d="M98,9.7c-0.1,0,0,0.1,0.2,0.1s0.3,0,0.2-0.1C98.2,9.7,98.1,9.7,98,9.7z"/>
		<path class="st0" d="M105.5,9.6c-0.5,0-1,0.1-1.1,0.2c-0.1,0.1,1.9-0.1,2-0.2C106.4,9.5,106,9.5,105.5,9.6z"/>
		<path class="st0" d="M91.7,12.2c0,0.1,0,0.1,0.1,0.1c0.1,0,0.2-0.1,0.2-0.1c0-0.1,0-0.1-0.1-0.1C91.8,12,91.8,12.1,91.7,12.2z"/>
		<path class="st0" d="M79.3,8.9L79.3,8.9c0,0.1,0,0.1,0.1,0.1c0.3,0,0.3-0.1,0.1-0.2C79.5,8.8,79.4,8.8,79.3,8.9z"/>
		<polygon class="st0" points="104.4,9.7 104.4,9.7 104.4,9.7 		"/>
		<path class="st0" d="M88.1,13.2c-0.1,0-0.1,0.1,0.2,0.1c0.2,0,0.4,0,0.3-0.1C88.4,13.2,88.2,13.2,88.1,13.2z"/>
		<path class="st0" d="M91.1,10.9c-0.3,0-1.1,0.1-1.7,0.2c-0.7,0.1-1.3,0.2-1.5,0.1c-0.1,0-0.4,0-0.7,0.1c-0.2,0.1-0.6,0.2-0.9,0.2
			c-0.2,0-0.6,0.1-0.8,0.2v0c-0.2,0.1-0.3,0.2-0.1,0.1c0.2-0.1,0.5-0.1,0.8-0.2s1.1-0.2,1.7-0.3c1.5-0.3,2.7-0.5,3.2-0.6
			C91.5,10.9,91.4,10.9,91.1,10.9z"/>
		<path class="st0" d="M110.7,11.6c0-0.1,0-0.1-0.1-0.1s-0.2,0.1-0.2,0.1s0.1,0.1,0.1,0.1S110.6,11.6,110.7,11.6z"/>
		<path class="st0" d="M117.4,12.3c0.4,0.1,1.4,0.1,1.7-0.1c0.1-0.1-0.2-0.1-0.9-0.1C117,12,116.9,12.1,117.4,12.3z"/>
		<path class="st0" d="M115.9,14.4c-0.3,0-0.5,0.1-0.5,0.1c0,0.1,0.3,0.1,0.6,0.1c0.4,0,0.6-0.1,0.5-0.1
			C116.4,14.4,116.1,14.4,115.9,14.4z"/>
		<path class="st0" d="M117.2,12.5c-0.2,0-0.5,0.1-0.5,0.2c0,0.1,0,0.2,0.3,0.1C117.5,12.6,117.7,12.4,117.2,12.5z"/>
		<path class="st0" d="M106.7,9.5c0,0.1,0.2,0.2,0.5,0.2c0.6,0.1,0.9,0,0.6-0.2C107.6,9.3,106.7,9.3,106.7,9.5z"/>
		<path class="st0" d="M118.3,13.9c-0.3,0.2-0.3,0.2,1.6-0.2c0.7-0.1,0.9-0.2,0.7-0.3C120.2,13.4,118.7,13.7,118.3,13.9z"/>
		<path class="st0" d="M121.5,12c0-0.1,0-0.1-0.1-0.1c-0.1,0-0.2,0.1-0.2,0.1s0,0.1,0.1,0.1S121.4,12.1,121.5,12z"/>
		<path class="st0" d="M153.5,9.6c-0.2,0-0.3,0.1-0.2,0.2c0.1,0.1,0.5,0,0.5-0.2C153.8,9.6,153.7,9.6,153.5,9.6z"/>
		<path class="st0" d="M189.8,6.1c0.3,0,0.4,0,0.3-0.1c-0.1,0-0.4,0-0.5,0h0C189.4,6.1,189.5,6.1,189.8,6.1z"/>
		<path class="st0" d="M187,3.8c0-0.1-0.2-0.1-0.5-0.1c-0.3,0-0.5,0.1-0.6,0.1c-0.1,0.1,0.1,0.1,0.5,0.1C186.8,3.9,187,3.9,187,3.8z
			"/>
		<path class="st0" d="M185.9,7.2c0,0,1.7,0.1,3.8,0.1c3.8,0,8.4,0.2,8.8,0.4c0.3,0.2,0.4,0.2,0.4,0c0-0.2-0.7-0.5-1.3-0.5
			c-0.3,0-1.1-0.1-1.8-0.2c-0.7-0.1-1.3-0.1-1.4-0.1c-0.2,0.1-4.5,0.2-7.2,0.2C186.4,7.2,185.9,7.2,185.9,7.2z"/>
		<path class="st0" d="M188.8,3.8c-1,0-1.4,0-1.2,0.1h0c0.4,0.1,2.7,0.1,2.7,0C190.4,3.9,189.7,3.8,188.8,3.8z"/>
		<path class="st0" d="M196.9,6.1c-0.2-0.2-2-0.3-2.2-0.2c-0.1,0.1,0.1,0.1,0.6,0.2C196.9,6.3,197.1,6.3,196.9,6.1z"/>
		<path class="st0" d="M190.8,4.1c0.2,0,0.2,0,0.2-0.1C191,3.9,190.9,3.9,190.8,4.1L190.8,4.1C190.6,4,190.7,4.1,190.8,4.1z"/>
		<path class="st0" d="M192.5,4.1c0.2,0,0.3,0,0.2-0.1c-0.1,0-0.3,0-0.4,0C192.2,4,192.3,4.1,192.5,4.1z"/>
		<path class="st0" d="M200.3,6.2c-0.2,0-0.3,0-0.3,0.1s0.1,0.1,0.3,0.1c0.2,0,0.3,0,0.3-0.1S200.5,6.3,200.3,6.2z"/>
		<path class="st0" d="M191.9,1.8c-0.1,0,0,0.1,0.2,0.1c0.2,0,0.3,0,0.2-0.1C192.2,1.7,192,1.7,191.9,1.8z"/>
		<path class="st0" d="M206,9.5c0.3,0,0.4,0,0.3-0.1c-0.1,0-0.4,0-0.5,0h0C205.6,9.4,205.7,9.5,206,9.5z"/>
		<path class="st0" d="M200.8,7.7c0.1,0,0.1-0.1,0.1-0.1c0-0.1-0.2-0.1-0.2-0.1c-0.1,0-0.1,0.1-0.1,0.1
			C200.6,7.7,200.7,7.7,200.8,7.7z"/>
		<path class="st0" d="M198.8,7.2c0-0.1,0-0.1-0.1-0.1s-0.2,0.1-0.2,0.1c0,0.1,0,0.1,0.1,0.1C198.7,7.3,198.8,7.2,198.8,7.2z"/>
		<path class="st0" d="M206.7,9.6c0.2,0,0.2,0,0.2-0.1C206.9,9.5,206.8,9.5,206.7,9.6L206.7,9.6C206.5,9.6,206.6,9.6,206.7,9.6z"/>
		<path class="st0" d="M209.4,19.1c-0.1,0,0,0.1,0.2,0.1c0.2,0,0.3,0,0.2-0.1S209.5,19.1,209.4,19.1z"/>
		<path class="st0" d="M158.9,4c-0.1,0-0.1,0.1,0.2,0.1c0.2,0,0.4,0,0.3-0.1C159.2,3.9,159,3.9,158.9,4z"/>
		<path class="st0" d="M178.7,7.3c0,0.1,0.3,0.1,0.5,0.1c0.5,0,0.5-0.1-0.1-0.2C178.8,7.2,178.7,7.2,178.7,7.3L178.7,7.3z"/>
		<path class="st0" d="M175.3,3.6c-0.1,0.1,0.8,0.1,2.6,0.1c1.5,0,2.7,0,2.6-0.1C180.4,3.6,175.3,3.5,175.3,3.6z"/>
		<path class="st0" d="M181.2,3.8c0-0.1-0.1-0.1-0.2-0.1c-0.1,0-0.2,0.1-0.1,0.1c0,0.1,0.2,0.1,0.2,0.1
			C181.2,3.9,181.2,3.9,181.2,3.8z"/>
		<path class="st0" d="M172.4,3.6c-1.8,0-7.4,0.2-7.5,0.3c0,0,2.2,0.1,5,0c2.8,0,5.1-0.1,5.1-0.2C175.1,3.6,174.3,3.6,172.4,3.6z"/>
		<path class="st0" d="M173.1,4.6c0.2,0,0.6-0.1,0.8-0.1c0.3-0.1,0.3-0.1-0.1-0.1c-0.3,0-0.6,0.1-0.8,0.1
			C172.7,4.6,172.7,4.6,173.1,4.6z"/>
		<path class="st0" d="M185.3,7.2c-0.1,0,0,0.1,0.2,0.1s0.3,0,0.2-0.1C185.5,7.2,185.4,7.2,185.3,7.2z"/>
		<path class="st0" d="M154.3,9.6c-0.1,0-0.1,0.1,0.2,0.1c0.2,0,0.4,0,0.3-0.1C154.6,9.5,154.4,9.5,154.3,9.6z"/>
		<path class="st0" d="M159.8,4c-0.1,0-0.1,0.1,0.2,0.1c0.2,0,0.4,0,0.3-0.1C160.1,3.9,159.9,3.9,159.8,4z"/>
		<path class="st0" d="M161.6,9.3c0,0.1,0.1,0.1,0.3,0.1c0.2,0,0.3-0.1,0.3-0.1c0,0-0.1-0.1-0.3-0.1S161.6,9.3,161.6,9.3z"/>
		<path class="st0" d="M162.3,3.8c-0.7,0-1.3,0.1-1.4,0.2c-0.1,0.1,0.5,0.1,1.2,0c0.7,0,1.3-0.1,1.4-0.2
			C163.6,3.8,163,3.7,162.3,3.8z"/>
		<path class="st0" d="M180.8,4.3c-0.1,0.1-0.4,0.1-0.6,0.1c-0.2,0-0.3,0.1-0.3,0.1c0.1,0.2,0.7,0.2,1-0.1
			C181,4.2,181,4.2,180.8,4.3z"/>
		<path class="st0" d="M182.6,3.7c-0.2,0-0.5,0-0.7,0c-0.2,0,0,0.1,0.3,0.1S182.8,3.7,182.6,3.7z"/>
		<path class="st0" d="M183.5,7.4c-0.1-0.1-1.1-0.1-1.2,0c0,0,0.2,0.1,0.6,0.1C183.3,7.5,183.6,7.4,183.5,7.4z"/>
		<path class="st0" d="M184.1,7.2c-0.1,0,0,0.1,0.2,0.1c0.2,0,0.3,0,0.2-0.1S184.2,7.2,184.1,7.2z"/>
		<path class="st0" d="M178.4,6.3c0.2,0,0.2,0,0.2-0.1C178.6,6.1,178.4,6.1,178.4,6.3L178.4,6.3C178.2,6.2,178.3,6.3,178.4,6.3z"/>
		<path class="st0" d="M180.1,7.4c-0.1,0,0,0.1,0.2,0.1c0.2,0,0.3,0,0.2-0.1C180.3,7.3,180.2,7.3,180.1,7.4z"/>
		<path class="st0" d="M179.1,4.5c0-0.3-3.1-0.4-4.3-0.2c-0.4,0.1,0,0.1,1.5,0.2c1.2,0,2.2,0.1,2.4,0.1
			C178.9,4.6,179.1,4.6,179.1,4.5z"/>
		<path class="st0" d="M177.8,7.4C177.6,7.4,177.7,7.4,177.8,7.4c0.2,0.1,0.3,0.1,0.3,0C178,7.3,177.9,7.3,177.8,7.4z"/>
		<path class="st0" d="M26.8,25.2c0,0.1,0,0.1,0.1,0.1c0.1,0,0.2-0.1,0.2-0.1s0-0.1-0.1-0.1C27,25.1,26.9,25.1,26.8,25.2z"/>
		<path class="st0" d="M32.3,23c-0.1,0-0.3,0-0.4,0c-0.1,0,0,0.1,0.2,0.1C32.3,23.1,32.4,23.1,32.3,23z"/>
		<path class="st0" d="M21.1,23.6c0,0.4,0.4,0.4,0.5-0.1c0.1-0.2,0.2-0.6,0.4-0.8l0.3-0.4L22,22.5C21.5,22.8,21.1,23.3,21.1,23.6z"
			/>
		<path class="st0" d="M34,16.1c0.1-0.1,0.1-0.2,0-0.3c-0.2-0.1-0.3,0.1-0.2,0.3v0C33.9,16.2,33.9,16.2,34,16.1z"/>
		<path class="st0" d="M30.7,23.3c-0.1,0-0.3,0-0.4,0c-0.1,0-0.1,0.1,0.2,0.1C30.7,23.4,30.8,23.4,30.7,23.3z"/>
		<path class="st0" d="M26.6,20.2l-0.5,0.1c-0.3,0-0.9,0.2-1.3,0.4c-0.4,0.2-0.7,0.4-0.6,0.3c0.4-0.1,1.4-0.4,1.9-0.6L26.6,20.2z"/>
		<path class="st0" d="M23.9,23.1c0.2-0.2,0.5-0.4,0.7-0.5c0.3-0.2,0.4-0.2,0.1-0.2c-0.2,0-0.6,0.2-0.9,0.4s-0.6,0.4-0.7,0.4
			s-0.2,0.1-0.2,0.2C22.9,23.7,23.5,23.5,23.9,23.1z"/>
		<path class="st0" d="M23.2,21.7C23.4,21.5,23.4,21.5,23.2,21.7c-0.2,0.1-0.3,0.2-0.3,0.2C22.9,22,23,22,23.2,21.7z"/>
		<path class="st0" d="M74.4,8.9c0-0.1,0-0.1-0.1-0.1c-0.1,0-0.2,0.1-0.2,0.1C74,9,74.1,9,74.2,9C74.2,9,74.3,9,74.4,8.9z"/>
		<path class="st0" d="M64.9,10.5c0,0.1,0,0.2,0.2,0.2c0.4,0,0.5-0.2,0.2-0.3C65.1,10.3,64.9,10.3,64.9,10.5z"/>
		<path class="st0" d="M54.2,10.2c0,0.2,0.1,0.2,0.5,0c0.3-0.1,0.2-0.1-0.1-0.1C54.4,10.1,54.2,10.1,54.2,10.2z"/>
		<path class="st0" d="M58.5,11.9c-0.1,0.1-0.4,0.1-0.6,0.2c-0.2,0-0.3,0.2-0.3,0.3c0,0.3,0.5,0.2,0.9-0.2
			C58.7,11.9,58.7,11.8,58.5,11.9z"/>
		<path class="st0" d="M54.3,7.7c0.1-0.2,0-0.2-0.4,0c-0.3,0.1-0.3,0.1,0,0.1C54.1,7.9,54.3,7.8,54.3,7.7z"/>
		<path class="st0" d="M54.6,17.5c-0.1,0,0,0.1,0.3,0.1c0.3,0,0.4,0,0.3-0.1C54.9,17.4,54.7,17.4,54.6,17.5z"/>
		<path class="st0" d="M52.2,17.9c-0.1,0-0.4,0-0.6,0v0c-0.2,0-0.1,0.1,0.3,0.1C52.2,18,52.3,17.9,52.2,17.9z"/>
		<path class="st0" d="M51.8,17c-0.1,0-0.3,0-0.4,0c-0.1,0-0.1,0.1,0.2,0.1C51.8,17.1,51.9,17.1,51.8,17z"/>
		<path class="st0" d="M54,19.3c0.5-0.2,1.3-0.4,1.8-0.4c0.3,0,0.5-0.1,0.5-0.2c-0.2-0.4-2.4,0-2.5,0.4v0
			C53.8,19.3,53.8,19.3,54,19.3z"/>
		<path class="st0" d="M67.3,11.1c0.2,0,0.5-0.1,0.7-0.1l0.4-0.1l-0.4,0c-0.2,0-0.5,0.1-0.7,0.1C67,11.1,67,11.1,67.3,11.1z"/>
		<path class="st0" d="M67.8,9.8c-0.1,0-0.3,0.1-0.5,0.3c-0.3,0.4-0.1,0.4,0.4,0C67.9,9.9,68,9.8,67.8,9.8z"/>
		<path class="st0" d="M70.8,9.5c0,0.1,0.1,0.1,0.3,0.1c0.3,0,0.3,0,0.1-0.1C71,9.3,70.8,9.3,70.8,9.5z"/>
		<path class="st0" d="M75.2,10.8c0,0.1,0.1,0.2,0.1,0.2s0.1-0.1,0.1-0.2c0-0.3-0.8-0.3-0.9-0.1c-0.1,0.1,0,0.1,0.3,0.1
			C75,10.7,75.2,10.7,75.2,10.8z"/>
		<path class="st0" d="M68.8,8.9c0-0.1-1.1,0-1.2,0.1v0c-0.1,0.1,0.1,0.1,1,0C68.7,9.1,68.8,9,68.8,8.9z"/>
		<path class="st0" d="M66.2,11.1L66.2,11.1c-0.1,0.1-0.1,0.1,0.2,0.1c0.2-0.1,0.3-0.1,0.2-0.2C66.4,10.9,66.3,11,66.2,11.1z"/>
		<path class="st0" d="M66.2,9.2c-0.3,0-0.7,0.1-0.9,0.1v0c-0.3,0.1-0.3,0.1-0.1,0.1c0.2,0,0.5,0,0.9-0.1l0.6-0.1L66.2,9.2z"/>
		<path class="st0" d="M69,10.2c0.2-0.2,0.1-0.4-0.2-0.4c-0.1,0-0.2,0.1-0.2,0.3C68.7,10.4,68.8,10.4,69,10.2z"/>
		<path class="st0" d="M25.3,25.5c0.3,0.1,0.7,0,1-0.2c0.3-0.2,0.2-0.2-0.5-0.1c-0.6,0.1-0.7,0-0.7-0.1c0.2-0.3,1.8-0.8,4.3-1.5
			c0.4-0.1,0.3-0.1-0.4-0.1c-1.1,0.1-1.1,0.1-2.2,0.4c-0.5,0.1-1,0.3-1.1,0.3c-0.1,0-0.3,0-0.3-0.1c0-0.1,0.1-0.2,0.2-0.2
			c0.1,0,0.2-0.1,0.2-0.1c0-0.1,0.1-0.2,0.3-0.2c0.2,0,0.3-0.1,0.2-0.2c0,0-0.5,0.1-1,0.3c-0.5,0.2-1.1,0.4-1.2,0.3
			c-0.2,0-0.4,0-0.4,0c0,0.1-0.4,0.2-0.8,0.4c-0.4,0.1-0.8,0.3-0.9,0.4c-0.1,0.1-0.4,0.2-0.6,0.2c-0.3,0.1-0.5,0.2-0.5,0.2
			c-0.1,0.1,0.8-0.1,1.6-0.4c0.6-0.2,0.7-0.2,0.5,0.2c-0.3,0.5-0.3,0.8,0.2,1c0.3,0.1,0.5,0.1,0.6,0C24,25.8,25.1,25.5,25.3,25.5z
			 M23.7,25c-0.5,0.5-0.5,0.5-0.7,0.3c-0.1-0.2,0.7-1,0.9-1C24.3,24.3,24.2,24.5,23.7,25z M24.6,24.6c0.1-0.2,0.5-0.3,0.5-0.1
			c0,0.1-0.1,0.2-0.3,0.2C24.7,24.7,24.6,24.7,24.6,24.6z"/>
		<path class="st0" d="M38.1,19.9c-0.2,0-0.5,0.1-0.7,0.2l-0.4,0.2l0.4-0.1c0.7-0.1,2.3-0.7,2.2-0.7c0,0-0.3,0-0.7,0.2
			S38.3,19.9,38.1,19.9z"/>
		<path class="st0" d="M32.6,25.5c0.6,0,0.7-0.1,0.4-0.2c-0.2-0.1-1.1-0.1-2.1,0c-2.3,0.2-2.2,0.2-2.1,0c0-0.1-0.2-0.1-0.6-0.1
			c-0.8,0-2.9,0.8-2.6,1v0c0.1,0.1,0.3,0.1,0.4,0c0.1,0,1.3-0.2,2.7-0.4c1.4-0.2,2.7-0.3,2.8-0.3C31.8,25.5,32.2,25.5,32.6,25.5z"/>
		<path class="st0" d="M30.5,26c-0.1,0-0.2,0.1-0.2,0.1c0,0,0.1,0.1,0.2,0.1c0.1,0,0.2-0.1,0.2-0.1C30.7,26,30.6,26,30.5,26z"/>
		<path class="st0" d="M35,21.4c0,0.1,0.2,0,0.4-0.1c0.2-0.1,0.3-0.3,0.3-0.3C35.6,20.9,35,21.2,35,21.4z"/>
		<path class="st0" d="M29.7,26.2c0,0.1,0,0.1,0.1,0.1c0,0,0.1-0.1,0.2-0.1c0-0.1,0-0.1-0.1-0.1C29.7,26.1,29.7,26.1,29.7,26.2z"/>
		<path class="st0" d="M22.7,27.8c-0.1,0-0.1,0-0.1,0.1v0c0,0.1,0.1,0.2,0.1,0.2s0.1,0,0.1-0.1C22.9,27.9,22.8,27.8,22.7,27.8z"/>
		<path class="st0" d="M21.1,27c0.1,0,0.2-0.1,0.4-0.1c0.1-0.1,0.2-0.1,0.1-0.1s-0.2,0.1-0.4,0.1C21,26.9,21,27,21.1,27z"/>
		<path class="st0" d="M24.3,26.6c0.2-0.1,0.3-0.2,0.1-0.2c-0.1,0-0.3,0.1-0.5,0.2C23.6,26.9,23.8,26.9,24.3,26.6z"/>
		<path class="st0" d="M42.9,19c0.2,0,0.2,0,0.2-0.1C43,18.9,42.9,18.9,42.9,19L42.9,19C42.7,19,42.7,19,42.9,19z"/>
		<path class="st0" d="M44.3,22.5l0.5-0.4L44.3,22.5c-0.5,0.3-1,0.8-1,1c0,0.1,0.1,0.1,0.4,0c0.2-0.1,0.2-0.2,0.2-0.3
			C43.8,23,44,22.8,44.3,22.5z"/>
		<path class="st0" d="M53.3,19.2c0,0-0.2,0-0.3,0.1c-0.1,0.1-0.1,0.2,0.1,0.1C53.3,19.3,53.3,19.3,53.3,19.2z"/>
		<path class="st0" d="M39.6,18.3c-0.4-0.1-1.9,0-3.5,0.3c-0.5,0.1-1.3,0.2-1.9,0.2c-0.6,0-1.1,0.1-1.1,0.2c-0.2,0.2,0.1,0.2,1.5,0
			c2.6-0.3,2.8-0.3,2.3,0.1v0c-0.1,0.2-0.1,0.2,0.2,0.1c0.2-0.1,0.4-0.2,0.4-0.2c0.2-0.3,0.8-0.5,1.6-0.5
			C39.8,18.4,39.9,18.4,39.6,18.3z"/>
		<path class="st0" d="M48.8,20.1c-0.1,0,0,0.1,0.3,0.1c0.3,0,0.4,0,0.3-0.1C49.1,20.1,48.9,20.1,48.8,20.1z"/>
		<path class="st0" d="M43.7,19c0.2,0,0.2,0,0.2-0.1C43.9,18.9,43.8,18.9,43.7,19L43.7,19C43.5,19,43.6,19,43.7,19z"/>
		<path class="st0" d="M40.6,21c-0.1,0,0,0.1,0.2,0.1c0.2,0,0.3,0,0.2-0.1C40.9,20.9,40.7,20.9,40.6,21z"/>
		<path class="st0" d="M41.2,19.1c0,0-0.2-0.1-0.3,0v0c-0.1,0-0.1,0.1,0.1,0.1C41.1,19.2,41.2,19.1,41.2,19.1z"/>
		<path class="st0" d="M50.3,18c-0.8,0-3.5,0.4-2.9,0.4c0.3,0,0.3,0.1,0.2,0.3c-0.1,0.3-0.1,0.3,0.1,0.1c0.1-0.2,0.6-0.3,1.3-0.4
			c0.6-0.1,1.3-0.2,1.6-0.3C51.1,18,51.1,18,50.3,18z"/>
		<path class="st0" d="M102.4,13.6c0,0.1,0,0.1,0.1,0.1s0.2-0.1,0.2-0.1c0-0.1,0-0.1-0.1-0.1S102.5,13.5,102.4,13.6z"/>
		<path class="st0" d="M163.8,49.5c0,0,0.2,0.1,0.5,0.1c0.3,0,0.6-0.1,0.7-0.2C165.1,49.3,163.9,49.4,163.8,49.5z"/>
		<path class="st0" d="M25,35.8c-0.1,0-0.4,0-0.5,0s0,0.1,0.3,0.1C25,35.9,25.1,35.9,25,35.8z"/>
		<path class="st0" d="M15.4,29.6c0,0.1,0.3,0.1,0.5,0c0.2-0.1,0.5-0.1,0.6-0.1c0.3,0,0-0.3-0.3-0.3C15.7,29.3,15.3,29.5,15.4,29.6z
			"/>
		<path class="st0" d="M151,37.6c-0.1,0,0,0.1,0.2,0.1c0.2,0,0.3,0,0.2-0.1C151.3,37.6,151.1,37.6,151,37.6z"/>
		<path class="st0" d="M165.6,49.4c-0.2,0-0.4,0.1-0.4,0.1s0.2,0.1,0.4,0.1c0.2,0,0.4-0.1,0.4-0.1C165.9,49.4,165.8,49.3,165.6,49.4
			z"/>
		<path class="st0" d="M23.5,36c-0.2,0-0.5,0-0.7,0c-0.2,0,0,0.1,0.3,0.1C23.5,36.1,23.7,36,23.5,36z"/>
		<path class="st0" d="M25.5,36.5c1.5-0.2,1.7-0.3,0.3-0.2c-0.6,0.1-1.5,0.1-2.1,0.2c-0.6,0-1.1,0.1-1.2,0.2
			C22.4,36.9,23,36.8,25.5,36.5z"/>
		<path class="st0" d="M144,36.3c0.6,0,1.3-0.1,1.5-0.2c0.4-0.1-0.8,0-2,0.2h0C143.1,36.3,143.2,36.3,144,36.3z"/>
		<path class="st0" d="M31,40.6c0.2,0,0.3,0,0.1-0.1c-0.2-0.1-0.2-0.1,0-0.1c0.1,0,0.5,0,0.9-0.1c0.6-0.1,0.7-0.1,0.7,0.2
			c0.1,0.3,0.1,0.3,0.3,0.2c0.1-0.1,0.9-0.1,1.8-0.1c0.8,0,1.9-0.1,2.4-0.1c1-0.1,1.8,0,1.8,0.3c0,0.2-1.1,0.6-1.8,0.7
			c-0.7,0-1.6,0.3-1.5,0.5c0,0.1,0.2,0.1,0.4,0c0.3-0.2,0.8-0.2,2.9-0.3l1.2-0.1l-0.6,0.3c-0.4,0.2-0.7,0.5-0.9,0.9
			c-0.4,0.7-0.6,0.8-1.7,0.8c-0.4,0-1.1,0.1-1.6,0.1c-0.8,0.2-1.3,0.1-1-0.2c0.1-0.1,0.1-0.3,0.1-0.4c0-0.1,0.1-0.2,0.5-0.2
			c0.3,0,0.6-0.1,0.6-0.2c0.1-0.1-0.3-0.1-0.8,0c-0.8,0.1-1,0-1.1-0.1c-0.1-0.1-0.1,0-0.1,0.4c0,0.3,0,0.6-0.2,0.8
			c-0.1,0.1-0.2,0.4-0.1,1c0.1,0.8,0.2,1.3,0.2,0.7c0-0.2,0.2-0.4,0.9-0.4c0.5,0,0.7-0.1,0.6-0.3c0-0.1,0-0.1,0.1-0.1
			c0.1,0,0.1-0.1,0.1-0.2c-0.1-0.2,0-0.2,0.3-0.2c0.2,0,0.6-0.1,0.8-0.2c0.2-0.1,0.7-0.1,1.1-0.1l0.6,0l-0.5,0.3
			c-0.5,0.3-0.9,0.9-0.8,1.3c0.1,0.3,0.5,0.4,1.4,0.4c0.4,0,0.8,0.1,0.9,0.2c0.1,0.2,1.8,0.1,3.8-0.1c0.4,0,0.6,0,0.6,0.2
			c0,0.1,0,0.2-0.1,0.2c-0.3,0-1.5,0.8-2.1,1.4c-0.5,0.5-1,1.4-1,1.8c0,0.2,0.1,0.2,0.3,0.2c0.2,0,0.5-0.1,0.7-0.1
			c0.3,0,0.4-0.1,0.4-0.3c0-0.2,0.1-0.3,0.1-0.3c0.2,0,0.2,0.1,0.3,0.8c0.1,0.2,0.2,0.4,0.3,0.4c0.2-0.1,0.2-0.6,0-0.8
			c-0.1-0.1-0.1-0.2,0-0.3c0.1-0.1,0.2-0.2,0.2-0.3c0.1-0.1,0.3-0.3,0.6-0.3c0.3,0,0.5-0.1,0.4-0.2c-0.1-0.2,0.3-0.4,1-0.4
			c0.5,0,0.6,0,0.4-0.1c-0.2-0.1-0.2-0.1,0-0.1c0.1,0,0.4-0.2,0.6-0.4c0.2-0.2,0.6-0.4,0.9-0.5c0.7-0.1,0.6,0.2-0.1,0.3
			c-0.2,0.1-0.5,0.2-0.5,0.2c-0.1,0.2,0.7-0.1,1.3-0.5c0.2-0.1,0.8-0.3,1.2-0.3c0.4,0,1.1-0.1,1.5-0.2c0.6-0.1,0.7,0,0.7,0.1
			c0,0.2,0.8,0.3,0.9,0.1c0-0.1,0.5-0.2,1.1-0.2c0.6-0.1,1-0.2,1-0.3c0-0.1-0.1-0.1-0.3-0.1c-0.2,0-0.3,0-0.4-0.1
			c0-0.1-0.4-0.1-0.8,0c-0.5,0.1-0.6,0.1-0.5-0.1c0.2-0.2,3.5-0.5,3.7-0.3c0.1,0.1,0.7,0,1.4,0c0.7-0.1,1.5-0.1,1.7,0
			c0.2,0.1,0.5,0.1,0.6,0.1c0.1,0,0.9-0.1,1.7-0.1c0.9,0,2-0.1,2.6-0.1c0.9-0.1,1,0,1.1,0.2c0.1,0.2,0.1,0.3-0.2,0.5
			c-0.2,0.1-0.4,0.2-0.6,0.2c-0.2,0-0.2,0.1-0.2,0.2c0.1,0.1,0,0.1-0.1,0.1c-0.1-0.1-0.6,0-1.1,0.1c-0.5,0.1-1.3,0.2-1.9,0.2
			c-0.8,0-1.1,0.1-1.2,0.2c0,0.1-0.4,0.2-0.7,0.3c-0.4,0.1-0.7,0.2-0.7,0.3c0,0.1,0.2,0.1,0.5,0.1c0.3,0,1.3-0.1,2.2-0.1
			c0.9,0,1.5,0,1.2,0c-0.2,0-0.7,0.2-1.1,0.3c-0.4,0.1-0.9,0.2-1.2,0.1c-0.3-0.1-0.6,0-0.7,0c-0.3,0.2,0.6,0.5,1.1,0.4
			c0.3,0,0.5,0,0.5,0.1c0,0.1-0.1,0.2-0.2,0.2c-0.4,0-0.3,0.6,0.1,0.6c0.2,0,0.3,0,0.1,0.1c-0.1,0-0.3,0.1-0.3,0.2
			c0,0.1-0.3,0.3-0.7,0.4C59,49.9,59,50.1,59.7,50c0.3-0.1,2.2-0.1,4.3-0.1c2.1,0,3.8-0.1,3.8-0.1c0-0.1-0.3-0.1-0.7-0.2l-0.8,0
			l0.7-0.1c0.4-0.1,0.8-0.2,0.9-0.2c0.1-0.1,1-0.2,2-0.3c1-0.1,2.2-0.3,2.8-0.3s1.6-0.1,2.2-0.1c1,0,1,0,0.5,0.2
			c-0.3,0.1-0.5,0.2-0.5,0.4c0,0.2,0.2,0.2,1.3,0.1c2.9-0.2,6-0.3,5.9-0.1c-0.2,0.2-2.5,0.7-3.8,0.8c-0.7,0.1-1.7,0.2-2.4,0.3
			c-0.6,0.1-1.5,0.3-2,0.4c-0.5,0.1-1.5,0.3-2.2,0.4c-3,0.6-4.2,0.8-4.9,0.7c-0.8-0.1-0.9-0.1-3.6-0.1c-1.2,0-2.9,0.1-3.8,0.2
			c-2.2,0.2-3.6,0.3-7.2,0.4c-1.5,0-3.4,0.1-4.2,0.2c-1.4,0.1-1.8-0.1-0.8-0.3l0.5-0.2l-0.5,0c-0.3,0-0.6,0-0.7,0.1
			C46,52,43.7,52.4,42,52.5c-1.6,0.1-1.9,0.2-1.5,0.3c0.1,0,0.4,0.1,0.5,0.2c0.3,0.1,1.2,0.1,6.5,0c3.7-0.1,5.4-0.1,13-0.5
			c1.6-0.1,2.4,0,2.7,0.1c0.3,0.1,0.4,0.2,0.2,0.3c-0.2,0.1-0.1,0.1,0.2,0.1c0.2-0.1,3.2-0.1,6.6-0.2c3.4,0,6.8-0.1,7.6-0.1
			c0.8,0,1.5,0,1.5,0.1c0,0.1,0.4,0.1,0.9,0c0.5,0,1.1-0.1,1.5,0c0.3,0,1.3,0,2.1,0c0.8,0,1.5,0,1.4,0.1c-0.1,0.1,0,0.2,0.1,0.3l0,0
			c0.2,0.2,0.2,0.2,0.7,0.1c0.4-0.1,0.4-0.3,0.1-0.3c-0.1,0-0.2,0-0.2-0.1c0-0.1,1.1-0.1,2.3-0.2c1.2,0,3-0.1,4-0.2s2.7-0.2,3.8-0.3
			c2.4-0.2,5.3-0.4,8-0.6c1.1-0.1,3.8-0.2,6.1-0.2c2.2,0,4.2-0.1,4.5-0.2c0.7-0.2,7.3-0.3,7.3-0.1c0,0.1,0.2,0.1,0.5,0.1
			c0.8-0.1,8.9-0.2,8.9-0.1c0,0.1-0.3,0.1-0.7,0.1c-0.4,0-0.8,0.1-0.9,0.1c-0.1,0.1,0.2,0.2,1.2,0.1c1.5,0,2.2-0.2,1.3-0.4
			c-0.5-0.1-0.5-0.1,0.2-0.1c0.4,0,0.8,0,1,0.1c0.2,0.1,0.4,0.1,0.4,0c0-0.1,1-0.2,3.9-0.4c1.2-0.1,1.6-0.1,1.7,0.1
			c0.3,0.3,0.4,0.2,0.3,0c-0.1-0.2,0.3-0.2,2.4-0.2c2.8,0,2.5,0.2-0.3,0.2c-1.3,0-1.8,0.1-1.7,0.2c0.1,0.1,1.6,0.1,3.4,0.1
			c3.9,0,11.2,0.1,12,0.3c0.4,0.1,0.6,0.1,0.5,0.3c-0.1,0.2,0.1,0.2,0.5,0.2c0.5,0,0.6,0,0.5-0.2c-0.1-0.2,0.1-0.2,1.2-0.2
			c0.7,0,1.6-0.1,1.9-0.2s0.8-0.2,1.1-0.2c0.2,0-0.4,0-1.4,0c-1.6,0-1.8,0-1.7-0.2c0.1-0.2,1-0.2,4.9-0.2c2.6,0,5,0.1,5.4,0.1
			c0.6,0.1,5,0.3,8.5,0.4c0.6,0,1.1,0.1,1.1,0.1c0.1,0.1-1.3,0.2-3.3,0.1c-2.6-0.1-6.6,0-6,0.2c0.4,0.1,0.4,0.1-0.1,0.1
			c-0.3,0-0.6-0.1-0.6-0.1c-0.1-0.1-0.1-0.1-0.2,0c-0.1,0.2-1.7,0.5-1.9,0.4c-0.1,0-0.6-0.1-1.1-0.1c-0.7-0.1-0.8,0-0.5,0.1
			c0.5,0.2,1.1,0.2,8.7,0.4c2.9,0.1,5.3,0.2,5.4,0.2c0.1,0-2.1,0.1-5,0.1c-2.9,0-5.5,0.1-5.9,0.1c-0.9,0.1,12.5,0.3,16.2,0.2
			c1.5,0,2.5-0.1,2.2-0.2c-0.2-0.1-0.5-0.1-0.7-0.1c-0.9,0.1-5.2,0-5.2-0.1c0.1-0.1,2.6-0.1,5.6-0.1c3,0,6.5-0.1,7.7-0.1
			c1.2-0.1,3.4,0,4.7,0.1c3,0.2,8.1-0.1,7.9-0.5c0-0.1,0-0.2,0.1-0.4c0.1-0.2,0.1-0.2-0.1-0.2c-0.2,0-0.5,0.1-0.7,0.1
			c-0.4,0.2-0.4,0.1-0.3-0.2c0.1-0.1,0.3-0.2,0.5-0.3c0.4,0,0.4,0-0.1-0.1c-0.6-0.1-0.6-0.2,0.8-0.5c1.1-0.3,1.6-0.6,1.3-0.8
			c-0.2-0.1-0.2-0.2,0-0.4c0.2-0.2,0.2-0.2-0.1-0.1c-1.3,0.5-3.5,1-3.5,0.8c0,0,0.3-0.2,0.6-0.2c0.8-0.2,1.3-0.4,1.3-0.7
			c0-0.1,0.2-0.2,0.4-0.2c0.2,0,0.5-0.1,0.8-0.2c0.4-0.2,1.3-0.3,2.2-0.3c0.4,0,0.5-0.1,0.4-0.3c-0.1-0.2,0-0.3,0.4-0.3
			c0.2,0,0.5-0.1,0.5-0.2c0.1-0.1,0-0.1-0.1-0.1c-0.1,0-0.7,0.1-1.3,0.2c-0.8,0.1-1,0.1-0.9-0.1c0.1-0.1,0.2-0.2,0.4-0.3
			c0.2-0.1,0.2-0.1,0.1-0.4c-0.2-0.2-0.3-0.2-1.7,0.1c-1.3,0.3-1.7,0.3-2.7,0.3c-1.1-0.1-1.2-0.1-0.9-0.3c0.3-0.1,0.3-0.2-0.5-0.2
			c-0.8,0-0.8,0-0.7-0.4c0.1-0.5,0-0.5-0.7,0.1c-0.5,0.5-0.8,0.6-0.8,0.4c0-0.1-0.4-0.1-0.9-0.1c-0.9,0.1-1.2-0.2-0.4-0.3
			c0.3,0,1-0.2,1.7-0.4c1-0.3,1.3-0.4,1.3-0.6c0-0.2,0.1-0.2,0.2-0.2c0.1,0,0.2,0,0.2-0.1c0-0.1-0.5-0.1-1.1-0.1
			c-0.6,0-1.1-0.1-1.1-0.1c0-0.2,1.4-0.6,2.6-0.8c0.9-0.1,2-0.5,2.3-0.7c0.1,0-0.2-0.1-0.5-0.1c-0.3,0-0.6-0.1-0.6-0.2
			c-0.1-0.2,1.1-0.7,1.9-0.9c0.2-0.1,0.4-0.2,0.4-0.2c0-0.1,0.1-0.1,0.3-0.1c0.2,0,0.4-0.1,0.5-0.2c0.1-0.1,0.4-0.2,0.6-0.2
			c0.2,0,0.4-0.1,0.5-0.2c0.1-0.1,0.3-0.3,0.6-0.5c0.3-0.2,0.3-0.3,0.2-0.2c-1.6,0.5-3.5,0.6-5.2,0.3c-0.6-0.1-0.8-0.1-0.8,0
			c0.1,0.1-0.1,0.2-0.4,0.2c-0.4,0-0.4,0-0.3-0.2c0.2-0.2,0-0.2-1-0.2c-0.9,0.1-1.2,0-1.1-0.1c0-0.1,0.1-0.2,0.2-0.2
			c0.1,0,0.2,0,0.3-0.1c0.1-0.1,0-0.1-0.2-0.1c-0.3,0-0.2,0,0.1-0.3c0.2-0.2,0.5-0.3,0.6-0.3c0.1,0,0.5-0.1,0.7-0.2l0.5-0.2l-0.8,0
			c-0.5,0-0.8-0.1-0.8-0.1c0.1-0.4,0-0.5-0.6-0.4c-0.3,0.1-0.6,0-0.6,0c0-0.1-0.3-0.1-0.7,0c-0.5,0.1-0.7,0-0.7-0.1
			c0-0.1-0.1-0.2-0.2-0.1c-0.1,0-0.8,0.1-1.6,0.1c-0.8,0-1.8,0.1-2.4,0.2c-0.8,0.1-1.1,0.1-1.4-0.1c-0.4-0.2-0.4-0.2,0.4-0.3
			c0.4,0,1.4-0.2,2.3-0.4c0.8-0.2,1.8-0.3,2.1-0.3c0.3,0,0.9-0.1,1.3-0.2c0.4-0.1,0.9-0.2,1-0.2c0.4,0,1.1-0.3,1.1-0.5
			c0-0.3-0.2-0.4-1-0.2c-0.4,0.1-0.9,0.2-1.1,0.1c-0.2,0-0.4,0-0.6,0.1c-0.1,0.1-0.7,0.2-1.2,0.2c-0.5,0.1-1.2,0.2-1.6,0.2
			c-0.4,0.1-0.7,0.1-0.8,0c-0.1-0.1-0.3-0.1-0.5-0.1c-0.3,0-0.3,0,0.1,0.1c0.7,0.2-2,0.5-4.2,0.5c-1.1,0-2,0.1-2.1,0.1
			c-0.1,0.2-1.3,0.3-1.3,0.1c0-0.1,0.1-0.1,0.3-0.1c0.2,0,0.3-0.1,0.4-0.1c0-0.1,0.6-0.1,1.2-0.2c1.1,0,3.4-0.4,3.9-0.7
			c0.2-0.1,0.1-0.1-0.5-0.1c-0.4,0-0.8,0.1-1,0.2c-0.1,0-0.3,0-0.3-0.1c0-0.2,1.7-0.4,2.3-0.2c0.5,0.1,1.6-0.1,1.6-0.4
			c0-0.1,0.1-0.1,0.1-0.1c0.1,0.1,0.6,0,1.1,0c0.5-0.1,0.9-0.2,0.8-0.2c-0.1-0.1-0.5-0.1-0.8,0c-0.4,0.1-0.7,0.1-0.7,0.1
			c-0.1-0.1,3.6-1,4-1c0.4,0,0.8-0.1,1.4-0.5c0.2-0.1,0.3-0.2,0.1-0.2c-0.1,0-0.3-0.1-0.5-0.3c-0.1-0.2-0.4-0.3-0.5-0.3
			c-0.4,0,0.1-0.2,0.8-0.4c0.3-0.1,0.6-0.2,0.6-0.2c0-0.1,0.4-0.1,0.9-0.1c0.5,0,0.8-0.1,0.8-0.1c-0.1-0.2,0.7-0.3,2.8-0.4
			c1,0,2.2-0.1,2.7-0.2c0.5-0.1,1-0.2,1.2-0.2c0.2,0,0.5-0.1,0.6-0.2c0.1-0.1-0.1-0.2-0.7-0.2c-0.7-0.1-0.9-0.1-0.6-0.2
			c0.6-0.2,0.2-0.4-1.1-0.3c-0.9,0-1.4,0-1.6-0.2c-0.2-0.1-0.3-0.2-0.2-0.2c0.1,0,0.1-0.1,0.1-0.3c0-0.2-0.1-0.3-0.5-0.2
			c-0.4,0-0.5,0-0.5-0.1c0-0.1,0.3-0.2,0.7-0.2c0.6,0,0.7,0,0.8-0.3c0-0.3,0.1-0.3,2.1-0.4c1.3,0,2-0.1,2-0.2c0-0.1-0.2-0.1-0.4-0.1
			c-0.2,0-0.4-0.1-0.4-0.1c0-0.2,0.5-0.4,1.3-0.4c0.4,0,1-0.1,1.2-0.1l0.4-0.1l-0.5-0.2l-0.5-0.2l0.3-0.2c0.3-0.2,0.5-0.2,1.1,0
			c0.8,0.2,1.2,0.1,1.2-0.3c0-0.3-1.6-0.8-3.4-0.9c-1.3-0.1-2.5-0.5-2-0.7c0.2-0.1,0.5-0.2,0.8-0.3c0.4-0.2,0.4-0.3,0.2-0.3
			c-0.1-0.1-0.5-0.1-0.7-0.1c-0.3,0-0.4-0.1-0.3-0.2c0-0.1,0.5-0.2,1.4-0.2c0.8,0,1.4,0,1.5-0.1c0.1-0.2-1-0.8-1.6-0.9
			c-0.3,0-0.7-0.2-1.1-0.3c-0.5-0.2-0.5-0.3-0.3-0.4c0.5-0.3,0.3-0.4-0.3-0.3c-0.6,0.1-0.8-0.2-0.2-0.3c0.4-0.1,0.4-0.2,0.2-0.5
			c-0.1-0.1-0.1-0.3,0.1-0.4c0.1-0.1,0.2-0.2,0.2-0.3c-0.1-0.1-2.3-0.3-4.5-0.4c-1.2-0.1-2.5-0.3-2.5-0.4c0-0.1-0.2-0.1-0.3-0.1
			c-0.4,0-0.5-0.3-0.3-0.5c0.1-0.1,0.4-0.2,0.8-0.2c0.8,0,0.8-0.3,0.1-0.4c-0.6-0.1-0.6-0.3,0-0.3l0.5,0l-0.4-0.2
			c-0.2-0.1-0.3-0.3-0.3-0.4c0-0.2,0.2-0.3,0.8-0.3l0.7,0l-0.7-0.2c-0.7-0.2-1-0.5-0.4-0.4c0.1,0,0.7,0.1,1.4,0.1
			c1,0.1,1.1,0.1,1.1-0.2c0-0.2,0.1-0.2,0.9-0.2c0.5,0,1,0,1.1-0.1c0.3-0.2-0.7-0.4-2.4-0.5c-1.2,0-1.6-0.1-1.6-0.3
			c0-0.1-0.2-0.2-0.4-0.2c-0.4,0-0.4,0-0.4-0.3c0.1-0.2,0-0.3-0.5-0.5c-0.3-0.1-0.6-0.4-0.7-0.5c-0.1-0.2-0.5-0.3-5.5-0.2
			c-3.1,0-5.7,0.1-6.3,0.2c-1,0.2-4.8,0.3-5.1,0.2c-0.1,0-0.6-0.1-1.1-0.1c-0.6,0-1.2-0.1-1.4-0.1c-0.2,0-0.9,0-1.5,0.1
			c-0.6,0.1-2.2,0.2-3.5,0.3c-1.3,0.1-2.6,0.2-3,0.2c-1.2,0.2-1.9,0.2-6.9,0.3c-2.7,0-5.2,0.1-5.6,0.2c-0.4,0-1.8,0.1-3,0.2
			c-1.3,0-2.4,0.1-2.5,0.2c-0.1,0.1-0.3,0.1-0.3,0.1c-0.3-0.2-4.3-0.2-7.9-0.1c-4.4,0.2-6,0.3-10.3,0.4c-2.2,0.1-4,0.2-5.2,0.4
			c-1,0.2-2.1,0.3-2.4,0.3s-1.1,0.1-1.8,0.2c-0.7,0.1-1.9,0.3-2.7,0.3c-1.7,0.1-2.6,0.2-3.1,0.3c-0.2,0.1-0.4,0-0.6-0.2
			c-0.3-0.2-1.1-0.2-0.9,0.1c0,0.1,0,0.2-0.1,0.2c-0.1,0.1-0.1,0-0.1-0.1c0-0.2-0.3-0.3-0.5-0.1c-0.1,0.1-0.2,0.1-0.4,0.1
			c-0.4,0-1.9,0.2-4,0.4c-1.1,0.1-1.8,0.2-2,0.1c-0.2-0.2-1.4-0.1-2.3,0.1c-0.4,0.1-1,0.2-1.5,0.3c-0.7,0.1-0.8,0-0.8-0.2
			c0-0.1-0.1-0.2-0.1-0.2s-0.1,0.1-0.1,0.2c0,0.1-0.1,0.1-0.3,0.1c-0.6-0.2-0.7-0.2-0.7,0c0,0.2-0.2,0.2-0.3,0c0-0.1-0.3-0.1-1.2,0
			c-1.1,0.2-1.7,0.1-0.8-0.1c0.2-0.1,0.4-0.2,0.4-0.2c0-0.2-1.9,0-2.1,0.2c-0.1,0.1-0.3,0.1-0.5,0.1c-0.3,0-0.4-0.1-0.3-0.2
			c0-0.1,0-0.2-0.1-0.2c-0.1,0-0.2-0.1-0.2-0.1c0-0.1,0.9-0.5,1-0.4c0,0,0.2-0.1,0.3-0.2c0.2-0.2,1.4-0.3,5.2-0.4
			c3.7-0.1,9.6-0.5,11.7-0.7c3.5-0.4,6-0.7,14-1.3c1-0.1,2.9-0.2,4.3-0.3s2.8-0.2,3.2-0.4c0.4-0.1,1.7-0.3,2.7-0.4
			c2.7-0.2,5.5-0.5,8-0.8c0.3,0,0.5,0,0.4,0.1c-0.2,0.2-1.8,0.4-4.2,0.6c-2,0.2-3.1,0.5-1.3,0.3c0.6,0,1.7-0.1,2.3-0.2
			s2.2-0.2,3.5-0.4c1.3-0.1,2.4-0.3,2.6-0.3c0.2,0,0.7-0.1,1.3-0.1c0.6-0.1,1.3-0.2,1.6-0.2c0.6-0.1,4.1-0.5,6.2-0.7
			c1.9-0.1,2.9-0.2,4.6-0.4c2.9-0.4,4-0.4,4.2-0.2c0.3,0.3,0.7,0.3,0.9,0.1c0.2-0.1,0.3-0.1,0.4,0c0.1,0.1,0.2,0.1,0.3,0
			c0.1-0.1,1.9-0.2,3.9-0.2c4.4-0.1,4.3-0.1,5-0.3c0.3-0.1,1.6-0.2,2.9-0.3c3.9-0.3,4.2-0.3,3.9-0.4c-0.2-0.1,0-0.1,0.7-0.2
			c0.7-0.1,1.2,0,2.1,0.2c0.6,0.2,1.2,0.3,1.2,0.2s-0.1-0.1-0.2-0.2c-0.5-0.1-0.4-0.3,0.2-0.2c0.6,0.1,1.9,0.5,2.1,0.7
			c0.1,0.1,1.3,0.3,1.2,0.2c-0.1-0.2,1.4,0,1.6,0.1c0.2,0.2,0.6,0.2,0.5-0.1c-0.1-0.2,0-0.2,0.3-0.2c0.7,0,1.8,0.3,2.3,0.7
			c0.5,0.4,1.3,0.5,1.1,0.2c0-0.1,0-0.1,0.2-0.1c0.2,0,0.3,0.1,0.2,0.1c-0.1,0.2,0.8,0.2,1.6-0.1c0.4-0.1,0.9-0.2,1.1-0.2
			c0.4,0-0.8-0.4-2.2-0.7c-0.2,0-0.3-0.1-0.2-0.2c0-0.1,0.3-0.1,0.5-0.1c0.2,0.1,0.4,0,0.4-0.1c0-0.2-0.5-0.3-1.1-0.3
			c-0.3,0-0.5-0.1-0.5-0.1c0-0.1-0.2-0.1-0.5-0.1c-0.3,0-0.6-0.1-0.7-0.1c-0.2-0.1,0.1-0.1,0.9-0.1c1.3,0,1.3-0.1,0.1-0.2
			c-0.5-0.1-1-0.1-1.2-0.1c-0.2,0-0.6-0.1-0.9-0.1c-0.3,0-0.6-0.1-0.6-0.2c0-0.1,0.1-0.1,0.2-0.1c0.1,0,0.4,0,0.6,0
			c0.4,0,0.4,0,0.1-0.2c-0.2-0.1-0.6-0.1-0.9-0.1c-0.3,0-0.6,0-0.7,0c-0.2,0-4.8,0.1-10.7,0.2c-1.4,0-4.1,0.1-6,0.2
			c-1.9,0-4.5,0.2-5.9,0.2c-1.3,0.1-3.1,0.2-4,0.2c-3,0.1-5.7,0.3-6.1,0.5c-0.2,0.1,0,0.1,0.4,0c1.1-0.1,1.9-0.1,2.1,0.1
			c0.1,0.1-0.1,0.2-0.8,0.3c-0.5,0.1-1.6,0.2-2.3,0.3c-0.7,0.1-1.8,0.3-2.5,0.4c-0.7,0.1-1.7,0.2-2.3,0.3c-0.6,0.1-2.4,0.2-3.9,0.4
			c-1.5,0.1-3,0.3-3.3,0.3c-0.3,0-0.9,0.1-1.3,0.2c-0.4,0.1-1,0.2-1.2,0.4c-0.6,0.4-3.3,0.9-4.6,0.9c-0.4,0-1,0-1.4,0.1
			c-0.4,0-0.9,0.1-1.2,0.1c-0.2,0-1.3,0.1-2.5,0.3c-2.4,0.3-5,0.5-6.9,0.6c-2.5,0.1-4.7,0.3-5.9,0.5c-0.5,0.1-1.8,0.2-2.7,0.2
			c-1,0-2.7,0.1-3.8,0.3c-1.1,0.1-2.1,0.2-2.3,0.2c-1.4-0.1-3.8,0.1-3.8,0.2c0,0.1,0.3,0.2,0.7,0.2l0.7,0l-0.9,0.1
			c-0.5,0.1-1.9,0.2-3.3,0.2c-1.3,0-2.9,0.1-3.5,0.2s-2.7,0.1-4.6,0.1c-1.9,0-4,0.1-4.7,0.2c-1,0.1-1.2,0-1.2-0.1
			c0-0.1,0.1-0.3,0.2-0.3c0.1,0,0-0.1-0.1-0.1c-0.2,0-0.3,0.1-0.3,0.1c0,0.2-1,0.6-1.3,0.5c-0.1,0-0.3,0-0.4,0
			c-0.1,0.1-0.6,0.1-1.1,0.1c-0.6,0-0.9,0.1-0.9,0.2c0,0.3-0.1,0.3-1,0.6c-0.9,0.3-2.3,0.5-2.2,0.4c0,0,0-0.2-0.1-0.3
			c-0.2-0.3,0-0.3,1.2-0.4c0.5,0,1.1-0.1,1.2-0.2c0.1-0.1,0-0.2-0.6-0.1c-0.7,0.1-0.8,0.1-0.6-0.1c0.2-0.2,0.2-0.2-0.1-0.2
			c-0.5,0.1-0.9,0.3-1.1,0.5c-0.2,0.2-1.6,0.7-2.6,0.9c-0.3,0.1-0.9,0.1-1.4,0.1c-0.5,0-1.3,0.1-1.9,0.2c-0.6,0.1-1.3,0.1-1.7,0
			c-0.7-0.1-0.6-0.2,0.2-0.2c0.1,0,0.3-0.1,0.4-0.1c0.1-0.1,0.2-0.1,0.3,0c0.1,0,0.1,0,0.1,0c0-0.2-1.2-0.4-1.6-0.3
			c-0.6,0.2-4.7,0.4-4.8,0.3c-0.1-0.1,0.6-0.2,2.1-0.4c0.2,0,0.3-0.2,0.1-0.2c-1-0.1-1.3-0.1-1.4,0c0,0.1-0.3,0.1-0.5,0.1
			c-0.5,0-0.6-0.4,0-0.5c2.8-0.6,7-1,9.6-1c2,0,8.8-0.1,9.9-0.2c0.3,0,0.8-0.1,1.1-0.2c0.5-0.1,0.4-0.1-0.6-0.2
			c-0.7,0-1-0.1-0.9-0.1c0.4-0.2,8.3-0.8,8.7-0.6c0.1,0.1,0.4,0.1,0.7,0c0.2-0.1,1.2-0.1,2-0.1c1,0,1.7,0,1.9-0.1
			c0.2-0.1,0.1-0.2-0.7-0.2c-0.6,0-1.1-0.1-1.2-0.2c-0.1-0.1-0.3-0.1-0.6,0c-0.2,0.1-0.6,0.1-0.9,0.1c-0.3,0-1.5,0-2.7,0.1
			c-1.2,0.1-3,0.2-4,0.2c-1,0-2.4,0.1-3.1,0.2C98.1,15,96,15.1,96,14.9c0-0.1-0.2,0-0.4,0.1c-0.3,0.1-0.7,0.2-1.7,0.1
			c-0.7-0.1-1.3-0.1-1.4,0c-0.1,0.1-0.5-0.2-0.5-0.4c0-0.1,0.5-0.3,0.7-0.3c0,0,0.3-0.1,0.6-0.2c0.3-0.1,1.2-0.3,2.1-0.3
			c0.9-0.1,1.7-0.2,1.9-0.3c0.3-0.2,2.4-0.5,5.6-0.8c2.1-0.2,4.5-0.4,5.7-0.6l0.9-0.1l-0.7,0l-0.7,0l0.7-0.2
			c0.6-0.2,0.3-0.2-1.7-0.1c-1.3,0-2.9,0.1-3.5,0.3c-2,0.4-2.2,0.4-2.2,0.2c0-0.1-0.2-0.2-0.8-0.2c-1.2,0.1-2.2,0.2-2.5,0.4
			c-0.2,0.1-0.2,0.1-0.3,0c0-0.1-0.2-0.2-0.4-0.2c-0.2,0-0.3,0-0.1,0.1c0.3,0.2-0.2,0.3-0.7,0.2c-0.2-0.1-0.3-0.1-0.1-0.1
			c0.1,0,0.3-0.1,0.3-0.1c0.1-0.2-1.7-0.1-2,0.1c-0.2,0.1-1.3,0.3-2.6,0.4c-2.2,0.2-4.3,0.6-2.5,0.4c2.1-0.2,5-0.2,4.8-0.1
			c-0.5,0.3-5.1,1-8.5,1.2c-2.4,0.2-4.3,0.4-4.5,0.5c-0.1,0-0.5,0.1-0.9,0.2c-0.4,0-1.4-3.6-2.3-3.4c-0.8,0.2-2.2,0.4-3,0.5
			c-1,0.1-1.5,0.1-1.5,0.3c0,0.2-0.5,0.4-1.3,0.4c-0.5,0-0.6,0-0.4-0.1c0.2-0.1,0.2-0.1,0-0.1c-0.5,0-0.2-0.5,0.4-0.7
			c0.3-0.1,0.5-0.2,0.5-0.3c0-0.3-0.8-0.3-1.8,0c-1.6,0.4-3.1,0.7-3.8,0.6c-0.4-0.1-0.7,0-0.7,0c0,0.1-0.2,0.2-0.4,0.3
			c-0.4,0.2-1.1,0.2-1.1,0.1c0-0.2,0.3-0.5,0.7-0.5c0.2,0,0.3-0.1,0.3-0.3c0-0.2-0.1-0.3-0.1-0.3c0,0-0.4,0.2-0.8,0.5
			c-0.5,0.3-0.7,0.5-0.7,0.8c0,0.3-0.1,0.4-1.5,0.8c-0.8,0.2-2.1,0.7-2.8,1.1c-0.7,0.4-1.7,0.9-2.3,1.1c-0.8,0.4-1,0.5-0.9,0.8
			c0.1,0.3,0.5,0.3,1.2-0.1c0.2-0.1,0.5-0.2,0.8-0.2c0.2,0,0.4-0.1,0.4-0.2c0.1-0.2,1.5-0.6,2.4-0.6l0.7,0l-0.9,0.3
			c-0.6,0.2-1,0.4-1,0.6c-0.1,0.3-0.8,0.5-1.5,0.3c-0.8-0.1-1,0.1-0.3,0.3l0.5,0.1L58.7,17c-0.3,0.1-1,0.2-1.7,0.2
			c-0.7,0.1-1.2,0.2-1.3,0.2c0,0.1,0.4,0,1,0c0.6-0.1,1.1-0.1,1.3-0.1c0.2,0.1,0.3,0-0.6,0.4c-0.4,0.2-0.4,0.2-0.1,0.2
			c0.2,0,0.4,0,0.6-0.1c0.2-0.1,0.5-0.2,0.7-0.2s0.5-0.1,0.5-0.1c0-0.1,0.3-0.2,0.5-0.2c0.2,0,0.5-0.1,0.7-0.2
			c0.2-0.1,0.3-0.1,0.2,0.2c-0.1,0.2,0,0.3,0.1,0.2c0.1,0,0.2-0.2,0.1-0.3c-0.1-0.1,0-0.2,0.2-0.2c0.2,0,0.3,0.1,0.3,0.3
			c0,0.2-0.4,0.4-1,0.6c-0.5,0.2-1.1,0.4-1.2,0.5c-0.3,0.2-0.9,0.4-1.2,0.4c-0.1,0-0.4,0.1-0.7,0.3c-0.3,0.1-0.7,0.2-0.9,0.2
			c-0.2,0-0.4,0.1-0.4,0.2c0,0.3-0.2,0.3,2.3-0.5c0.5-0.2,1.1-0.3,1.2-0.3c0.3,0,1.2-0.1,3.1-0.6c1.3-0.3,1.9-0.4,1.7-0.2
			c0,0.1-0.3,0.2-0.6,0.2c-0.3,0.1-0.6,0.2-0.7,0.2c-0.3,0.2-2,0.7-3,0.8c-1.2,0.1-2.3,0.4-2.6,0.6c-0.5,0.3-1.6,0.5-2,0.4
			c-0.3-0.1-0.4-0.1-0.4,0.1c-0.1,0.2-0.3,0.3-1,0.4c-1.1,0.2-1.3,0.2-1,0c0.2-0.1,0.2-0.1-0.1-0.1c-0.2,0.1-1,0.3-1.9,0.5
			c-0.9,0.2-1.7,0.5-1.8,0.6c-0.3,0.2-0.5,0.2-0.4,0c0.1-0.2,0-0.2-0.4,0c-0.2,0.1-0.3,0.2-0.2,0.3c0.1,0-0.1,0.1-0.5,0.1
			c-0.3,0-0.8,0.1-1,0.1l-0.4,0.1l0.4-0.4c0.2-0.2,0.5-0.4,0.6-0.4c0.1,0,0.2-0.1,0.3-0.2c0.1-0.1,0-0.1-0.3-0.1
			c-0.4,0.1-0.4,0.1-0.4-0.3c0.1-0.3,0-0.4-0.2-0.3c-0.1,0-0.2,0.2-0.2,0.3c0,0.2-0.1,0.3-0.4,0.3c-0.6,0.1-0.8,0.3-0.8,0.5
			c0,0.1-0.1,0.4-0.2,0.6c-0.2,0.3-0.2,0.4-0.1,0.7c0.3,0.6,0.1,0.8-0.8,0.8c-0.4,0-0.8,0.1-0.9,0.1c0,0.1-0.2,0.1-0.4,0.1
			c-0.2,0-0.4,0.1-0.5,0.2c-0.2,0.1-0.2,0.2,0,0.3c0.2,0.2,0.2,0.2-0.1,0.7c-0.3,0.5-0.4,0.6-0.8,0.6c-0.3,0-0.5-0.1-0.4-0.1
			c0.1-0.2-0.1-0.2-0.3-0.1c-0.1,0.1,0,0.2,0.2,0.3c0.2,0.2,0.1,0.2-0.5,0.2c-0.8,0-1.5,0.3-1.5,0.7c0,0.2-0.8,0.5-1.9,0.6
			c-0.7,0.1-1,0.1-2,0.2c-0.6,0-0.6,0-0.2,0.2c0.2,0.1,0.6,0.1,0.8,0c0.3-0.1,0.3,0,0.2,0.1c-0.1,0.1-0.5,0.2-1.5,0.1
			c-0.8,0-1.5,0-1.5,0.1c0,0.1-0.5,0.1-0.9,0.1c-0.5,0-1.2,0.1-1.6,0.1c-0.5,0.1-1,0.1-1.2,0l-0.4-0.1l0.4-0.2
			c0.2-0.1,0.6-0.2,0.7-0.3c0.2-0.1,1-0.2,1.9-0.3c1.8-0.2,4.9-0.6,5.5-0.7c0.7-0.2,0.6-0.5-0.1-0.5c-0.4,0-0.7,0-0.7,0.1
			c0,0.1-1.2,0.1-2.8,0.2c-1.9,0-2.7,0-2.7-0.1c0.1-0.1,0.3-0.2,0.5-0.2c0.2,0,0.4-0.1,0.4-0.1c-0.2-0.3-3.3,0.5-4.6,1.1
			c-0.4,0.2-0.9,0.4-1.1,0.4c-0.2,0-0.3,0.1-0.3,0.2c0,0.1-0.1,0.2-0.2,0.2c-0.3-0.1-0.4,0.1-0.4,0.7c0,0.3-0.1,0.4-0.2,0.4
			c-0.8,0-4.8,0.5-5.5,0.7c-1.7,0.4-1.7,0.4-1.5,0.2c0.1-0.1,0.3-0.2,0.5-0.2c0.1,0,0.3-0.1,0.3-0.1c0-0.1,0.6-0.3,1.2-0.5
			c0.6-0.2,1.2-0.4,1.2-0.5c0-0.1,0.2-0.2,0.4-0.3c0.3-0.1,0.3-0.1,0.1-0.2c-0.2,0-0.4,0.1-0.5,0.2c-0.1,0.1-1,0.4-2,0.7
			c-1.3,0.3-1.9,0.6-2.5,1c-0.4,0.3-1.1,4.6-1.6,4.8c-0.5,0.2-0.7,0.4-0.6,0.4c0.1,0,0.4-0.1,0.6-0.2c0.5-0.3,0.6-0.2,0.3,0.4
			c-0.1,0.3-0.2,0.5-0.2,0.5c0,0,0.5-0.3,1.1-0.7c1.9-1.3,2.7-5.5,3.2-5.1c0.3,0.2,0.3,4.1,0,4.3c-0.1,0.1-0.8,0.3-1.4,0.5
			c-1.3,0.3-1.3,0.3-1.2,0.5c0.1,0.1,0.2,0.1,0.3,0c0.2-0.2,2-0.6,2.5-0.6c0.5,0,0.4,0-0.7,0.4c-0.5,0.1-0.8,0.3-0.8,0.3
			c0,0,1.4-0.2,2.5-0.5c0.2,0,0.3,0,0.3,0.1c0,0.2-1.3,0.7-2,0.8c-0.9,0.1-1.2,0.3-0.6,0.3l0.5,0l-0.5,0.2c-0.3,0.1-0.5,0.3-0.5,0.4
			c0,0.2,0.4,0,1-0.4c0.3-0.2,1-0.4,1.7-0.5c0.8-0.1,1-0.2,0.7-0.2c-0.6,0-0.7-0.3-0.1-0.4c0.2-0.1,0.5-0.1,0.5-0.2
			c0.2-0.2,1.8-0.4,3.5-0.5c1.8-0.1,4.6-4.2,6.8-4.4c3.1-0.3,3.6-0.3,3.6-0.2c0,0-0.2,4.1-0.5,4.3c-0.4,0.3-0.7,0.4-1.2,0.4
			c-0.8,0-1.4,0.4-1.2,0.8c0.1,0.2,0.2,0.2,0.5,0.1l0.4-0.1l-0.3,0.4c-0.2,0.2-0.4,0.6-0.6,0.8c-0.2,0.2-0.3,0.4-0.3,0.5
			c0,0.3-0.6,0.4-2.5,0.4c-0.7,0-1.5,0.1-1.7,0.1c-0.2,0-1,0.1-1.6,0.1c-0.6,0-2.3,0.1-3.8,0.2c-2,0.1-2.7,0.1-2.9,0
			c-0.3-0.3-0.2-0.4,0.2-0.5c0.2,0-0.1-0.1-0.7-0.1c-0.6,0-1.3-0.1-1.6-0.1c-0.5-0.1-0.5,0-0.3,0.3c0.1,0.1,0.3,0.1,1,0
			c0.7-0.1,0.9-0.1,1,0c0.2,0.4,0.1,0.6-0.2,0.5c-0.2,0-0.4,0-0.4,0c0,0.1-0.3,0.2-0.7,0.2c-0.9,0.1-2,0.5-2.4,0.7
			c-0.3,0.2-0.3,0.2,0.1,0.1c0.2-0.1,0.6-0.1,0.9-0.1c0.4,0.1,0.4,0.1,0.1,0.2c-0.2,0.1-0.1,0.1,0.2,0c1.7-0.3,2.5-0.4,4.8-0.5
			c1.4-0.1,3.2-0.2,4-0.3c0.8-0.1,1.9-0.2,2.5-0.2c1-0.1,1,0,0.9,0.2c-0.2,0.2-0.2,0.2,0.1,0.1c0.2-0.1,0.7-0.2,1.2-0.3
			c0.9-0.1,0.9-0.1,0.9,0.2c0,0.2-0.1,0.3-0.2,0.4c-0.1,0-1.7,0.1-3.6,0.2c-3.3,0.2-5.1,0.4-5.4,0.6c-0.1,0.1,0.1,0.1,0.3,0
			c1.5-0.3,7.3-0.4,7.6-0.1C30.7,40.6,30.9,40.6,31,40.6z M34.5,44.6C34.3,44.6,34.3,44.6,34.5,44.6c0-0.1,0.1-0.1,0.2-0.1v0
			C34.7,44.6,34.6,44.6,34.5,44.6z M39.6,44c0,0.1-0.2,0.1-0.3,0.1c-0.1,0-0.2-0.1-0.1-0.1c0-0.1,0.2-0.1,0.3-0.1
			C39.6,43.9,39.6,43.9,39.6,44z M41.4,48.6c-0.1,0-0.1-0.1-0.1-0.1c0-0.1,0.1-0.1,0.2-0.1s0.1,0.1,0.1,0.1
			C41.5,48.5,41.4,48.6,41.4,48.6z M70.8,51.6C70.6,51.6,70.6,51.6,70.8,51.6c0-0.1,0.1-0.1,0.2-0.1v0C71,51.6,70.9,51.7,70.8,51.6z
			 M72.8,51.8c-0.2,0-0.3,0-0.2-0.1c0.1,0,0.3,0,0.4,0C73.2,51.7,73,51.8,72.8,51.8z M77.3,51.1c-0.8,0-2.2,0.1-3,0.2
			c-2.9,0.3-3,0.3-2.5,0.2c1-0.3,2.4-0.4,4-0.5c1,0,2.1-0.1,2.6-0.2c0.5-0.1,0.8,0,0.8,0.1C79.2,51,78.8,51.1,77.3,51.1z
			 M207.2,47.3c0-0.1,0.2-0.1,0.2-0.1c0.1,0,0.1,0.1,0.1,0.1s-0.2,0.1-0.2,0.1C207.2,47.4,207.1,47.3,207.2,47.3z M204.6,48.6
			c0.4-0.2,1-0.2,0.9,0h0c0,0.1-0.3,0.1-0.6,0.1C204.4,48.7,204.4,48.7,204.6,48.6z M201.5,46.7c0.1,0,0.3,0,0.4,0v0
			c0.1,0,0,0.1-0.3,0.1C201.5,46.8,201.4,46.7,201.5,46.7z M203.6,43.1c-0.1,0.1-0.3,0.1-0.4,0.1c-0.1,0-0.1-0.1,0.1-0.1
			C203.7,43,203.9,43,203.6,43.1z M202.2,42.5c0.4-0.2,2.6-0.5,2.4-0.3c0,0.1-0.5,0.2-1,0.2v0c-0.5,0.1-1.1,0.2-1.4,0.2l-0.4,0.1
			L202.2,42.5z M200.4,42.7c0.1,0,0,0.1-0.2,0.1s-0.3,0-0.2-0.1C200.1,42.7,200.3,42.7,200.4,42.7z M200,39.2c0.1,0,0.2,0,0.3,0v0
			C200.3,39.3,200.2,39.3,200,39.2C199.9,39.3,199.9,39.3,200,39.2z M199.5,41.1c0.1-0.1,0.5-0.1,0.5,0.1c0,0-0.1,0.1-0.3,0.1
			S199.5,41.2,199.5,41.1z M198.3,36.9c0.1,0,0.2,0,0.3,0S198.5,37,198.3,36.9C198.2,37,198.2,36.9,198.3,36.9z M207.7,23.3
			c0.2,0.1,0.3,0.1,0.2,0.1l0,0c-0.4,0.1-1.4,0.1-1.4,0C206.5,23.3,207.3,23.2,207.7,23.3z M205.4,22.3c0.3,0,0.6,0.1,0.6,0.1
			c0,0.1-0.3,0.1-0.6,0.1c-0.3,0-0.6-0.1-0.6-0.1C204.8,22.4,205.1,22.3,205.4,22.3z M200.4,19.2c0.1,0,0.2,0.1,0.2,0.1
			s-0.1,0.1-0.2,0.1c-0.1,0-0.2-0.1-0.2-0.1S200.3,19.2,200.4,19.2z M188.7,34.4c0.1,0,0.3,0,0.4,0c0.1,0,0,0.1-0.2,0.1
			C188.7,34.5,188.6,34.4,188.7,34.4z M190.1,37c-0.3,0.1-1.5,0.2-1.4,0.1c0,0,0.4-0.1,0.9-0.1C190.1,36.9,190.3,36.9,190.1,37z
			 M188.4,33.8c2.8-0.3,9.7-0.2,8.7,0.1c-0.2,0.1-0.8,0.1-1.3,0.1c-0.5,0-1,0.1-1.2,0.2c-0.2,0.1-0.7,0.2-1.3,0.1
			c-0.5,0-0.9,0-0.9,0.1c0,0.1-0.6,0.1-1.2,0.1c-0.7,0-1.2,0-1.2-0.1c0-0.1,0.1-0.1,0.3-0.1c0.2,0,0.4-0.1,0.5-0.2
			c0.2-0.1,0.1-0.1-0.3-0.1c-0.3,0-0.6,0.1-0.8,0.1c-0.2,0-0.3,0-0.1,0.2h0c0.1,0.1,0.1,0.2,0,0.2c-0.1,0-0.2-0.1-0.3-0.3
			c-0.1-0.2-0.3-0.3-1-0.3C187.1,34.1,187.1,33.9,188.4,33.8z M122,49.2c-0.1,0-0.1-0.1-0.1-0.2c0-0.1,0.1-0.1,0.1-0.1
			c0.1,0,0.1,0.1,0.1,0.2C122.1,49.1,122.1,49.2,122,49.2z M128.7,50.3c-0.2-0.1,0.3-0.1,1.1-0.1c0.7,0,1.4,0.1,1.4,0.1
			C131.3,50.5,129,50.5,128.7,50.3z M129,48.6c-1.2,0.1-2.6,0.1-3,0.2l0,0c-1.2,0.2-3.1,0.2-3.2,0c0-0.1,0-0.2,0-0.2
			c0.1-0.1,0.1,0,0.2,0.1c0,0.1,0.1,0.1,0.2,0.1c0.2-0.1,0.9-0.2,4.7-0.3c1.9-0.1,3.4-0.1,3.3,0C131.2,48.5,130.2,48.6,129,48.6z
			 M128.5,43.6c0.1,0,0.4,0,0.5,0c0.1,0,0,0.1-0.3,0.1S128.4,43.7,128.5,43.6z M131.9,45.6c-0.3,0-0.6-0.1-0.6-0.1
			c0-0.1,1,0,1.1,0.1C132.4,45.6,132.2,45.6,131.9,45.6z M146.9,50c-0.6,0-3.4,0.1-6.1,0.1h0c-2.8,0-5.3,0.1-5.6,0.1
			c-0.3,0-1.1,0-1.8,0c-1.2-0.1-1.2-0.1-0.7-0.2c1.1-0.2,1.8-0.2,3.3-0.3c0.8,0,1.9-0.1,2.5-0.1c0.5,0,1.6-0.1,2.5-0.1
			c0.8,0,1.7-0.1,2-0.2c0.2,0,0.9-0.1,1.5-0.2c0.6,0,1.4-0.1,1.7-0.2c0.4-0.1,0.6,0,0.6,0.1c0,0.1,0.1,0.1,0.1,0.1
			c0.1-0.1,14.5-0.2,14.5-0.2c-0.1,0.1-6.8,0.6-11.5,0.9C148.8,49.9,147.5,49.9,146.9,50z M135.3,45.6c-1.1,0.1-1.6,0-1.7-0.1
			c-0.1-0.1,0.1-0.2,0.2-0.2c1.1-0.2,2.5-0.4,3-0.4c0.6,0,0.6,0,0.3,0.3v0C137,45.4,136.7,45.5,135.3,45.6z M138.7,44.9
			c0.1,0,0.3,0,0.6,0c0.4,0,0.4,0,0.1,0.1h0c-0.2,0.1-0.6,0.2-1,0.2c-0.6,0.1-0.7,0-0.7-0.1C137.6,44.9,138.3,44.8,138.7,44.9z
			 M137.8,39c0.1,0,0.3,0,0.3,0.1c0,0.1,0,0.1-0.2,0.1C137.6,39.2,137.5,39.1,137.8,39z M154.9,37.3c2.7-0.3,5.9-0.6,6-0.5
			c0.3,0.3-0.7,0.4-3.6,0.6c-0.4,0-2.1,0.2-3.8,0.4c-5.1,0.7-5.6,0.7-6.4,0.6c-0.4,0-0.8,0-0.8,0c0,0.1-0.8,0.2-1.7,0.3
			c-0.9,0.1-2.3,0.2-2.9,0.3h0c-2.6,0.3-2.5,0.3-2.5,0c0-0.1-0.1-0.1-0.2-0.1c-0.1,0-0.3,0-0.5,0l-0.4,0l0.4-0.2
			c0.5-0.3,1.7-0.5,4.1-0.7c2.2-0.2,2.7-0.2,4.9-0.5c3-0.4,3.9-0.4,4-0.2C151.8,37.6,152.8,37.6,154.9,37.3z M152.9,37.3
			c0.1,0,0.3,0,0.4,0c0.1,0,0,0.1-0.2,0.1C152.9,37.4,152.8,37.4,152.9,37.3z M164.1,41.1c2.8-0.2,9.8-0.2,9.6,0
			c-0.1,0.1-0.6,0.1-1.3,0.1c-1.3,0-2.5,0.1-4.3,0.3c-1.3,0.1-1.6,0.2-2.9,0.2c-0.5,0-2.4,0-4.3,0v0c-1.9,0-4.8,0-6.6,0.1
			c-1.7,0-3,0.1-2.7,0c1.7-0.2,3.6-0.4,6.6-0.4C160.1,41.3,162.7,41.2,164.1,41.1z M163.6,40.6c0.3,0,0.6,0,0.6,0.1
			c0,0.1-1.6,0.2-1.8,0.1C162.2,40.6,162.4,40.6,163.6,40.6z M165.1,40.6c0-0.1,0.1-0.1,0.2-0.1c0.1,0,0.2,0.1,0.2,0.1
			c0,0-0.1,0.1-0.2,0.1C165.2,40.8,165.1,40.7,165.1,40.6z M173.1,45.8C172.9,45.8,172.9,45.7,173.1,45.8c0-0.1,0.1-0.1,0.2-0.1v0
			C173.3,45.7,173.2,45.8,173.1,45.8z M166.9,45.3c0-0.1-0.8-0.2-1.6-0.2c-1.2,0-1.4,0-1-0.1c0.3-0.1,1-0.1,1.4-0.1
			c0.5,0,1.4,0.1,2.1,0.1c1.2,0,1.2,0,0.7,0.2v0C167.9,45.5,167,45.5,166.9,45.3z M159.1,45.7c0.1,0,1.7,0,3.4-0.1c2,0,3,0,2.7,0
			c-0.7,0.2-6.4,0.3-6.4,0.2C158.9,45.7,159,45.7,159.1,45.7z M158.2,43.4c-0.5,0-0.6,0-0.6-0.2c0-0.2,0.2-0.2,1.2-0.2
			c0.7,0,1,0,0.8,0.1c-0.2,0-0.5,0.1-0.7,0.1C158.9,43.3,158.5,43.4,158.2,43.4z M151.1,46.7c1.9,0,2.3,0,1.7,0.1
			c-0.5,0.1-1.8,0.2-2.9,0.2c-1.6,0.1-1.9,0.1-1.7-0.1C148.4,46.8,149.3,46.7,151.1,46.7z M149.1,44.2c0.4-0.1,0.8-0.1,0.9,0
			c0.2,0.1,0,0.1-0.4,0.1c-0.3,0-0.8,0-1,0.1C148,44.5,148.3,44.3,149.1,44.2z M146.6,41.5c-0.3,0-0.4,0-0.3-0.1c0.1,0,0.4,0,0.5,0
			C147,41.5,146.8,41.5,146.6,41.5z M146.6,47.2C146.5,47.2,146.4,47.2,146.6,47.2c0-0.1,0.1-0.1,0.2-0.1l0,0
			C146.9,47.2,146.8,47.2,146.6,47.2z M145.5,41.6c-0.3,0-0.4,0-0.3-0.1c0.2,0,0.4,0,0.6,0v0C145.9,41.6,145.8,41.6,145.5,41.6z
			 M146.3,47.2c0,0-0.6,0.1-1.2,0.1c-0.8,0.1-1,0-0.6,0C145,47.1,146.4,47.1,146.3,47.2z M143.9,44.7
			C143.7,44.7,143.7,44.7,143.9,44.7c0-0.1,0.1-0.1,0.2-0.1l0,0C144.1,44.7,144,44.8,143.9,44.7z M154.9,49.9c-0.3,0-0.4,0-0.3-0.1
			c0.2,0,0.4,0,0.6,0l0,0C155.3,49.8,155.2,49.9,154.9,49.9z M153.3,49.9C153.1,49.9,153.1,49.8,153.3,49.9c0-0.1,0.1-0.1,0.2-0.1v0
			C153.5,49.9,153.4,49.9,153.3,49.9z M150.3,50.6c-0.2,0-0.3,0-0.2-0.1c0.1,0,0.3,0,0.4,0C150.6,50.6,150.5,50.6,150.3,50.6z
			 M156.2,50.8c-0.1-0.1-1.3-0.1-2.8-0.1c-1.8,0-2.7,0-2.7-0.1c0-0.1,1.2-0.1,3.6-0.1c2,0,3.6,0.1,3.5,0.1
			C157.7,50.8,156.3,50.9,156.2,50.8z M168.8,49.8c-6.1,0-5.7,0-5.4-0.2c0.2-0.1,0.1-0.1-0.4-0.1c-0.5,0-0.5,0-0.3,0.1
			c0.2,0.1-0.3,0.1-1.2,0.1c-0.8,0-1.5,0-1.6,0.1l0,0c-0.1,0.1-0.3,0.1-0.3,0c0-0.1-0.9-0.1-2-0.1l-2,0l1.4-0.1
			c0.8-0.1,2.5-0.3,3.8-0.4c1.6-0.2,2.9-0.2,3.8-0.2c0.8,0.1,1.9,0,2.6,0c1.6-0.1,6.6-0.1,7.6,0l0.7,0.1l-0.7,0
			c-0.6,0-1.4,0.1-4.8,0.1c-1.3,0-1,0.1,0.5,0.2c0.7,0,1.3,0.1,1.3,0.2C172,49.7,170.6,49.8,168.8,49.8z M174.8,49.9
			c-1.2,0-1.9,0-1.8-0.1c0.2-0.1,0.1-0.1-0.1-0.2c-0.2,0,0.6,0,1.6,0c1,0,2,0.1,2.1,0.2v0C176.8,49.8,176.2,49.9,174.8,49.9z
			 M176.3,45.9c-0.3,0-0.3,0,0.1-0.1c0.2-0.1,0.6-0.1,0.8-0.1c0.3,0,0.3,0-0.1,0.1C176.9,45.8,176.5,45.9,176.3,45.9z M176.1,41
			c0.1,0,0.3,0,0.4,0c0.1,0,0,0.1-0.3,0.1C176,41.1,175.9,41,176.1,41z M177.7,50.6C177.5,50.6,177.5,50.6,177.7,50.6
			c0-0.1,0.1-0.1,0.2-0.1v0C177.9,50.6,177.8,50.6,177.7,50.6z M177.6,49.8c-0.5-0.1-0.5-0.1-0.3-0.2c0.2-0.1,0.5-0.1,0.7,0l0,0
			C178.6,49.7,178.3,49.9,177.6,49.8z M179.3,52.4C179.1,52.4,179.1,52.3,179.3,52.4c0-0.1,0.1-0.1,0.2-0.1v0
			C179.5,52.4,179.4,52.4,179.3,52.4z M180,51.2c-0.1,0.2-0.6,0.2-1.4,0c-0.4-0.1-0.3-0.1,0.5-0.1C179.7,51.1,180.1,51.1,180,51.2z
			 M179.4,49l0.7,0.1l-0.9,0c-0.5,0-0.8,0-0.7-0.1C178.7,49,179,49,179.4,49z M179.3,47.4c-0.1-0.2,1.6-0.1,1.8,0
			c0,0.1-0.3,0.1-0.8,0.1S179.3,47.5,179.3,47.4z M198.3,44.8c0.1,0,0.2,0,0.3,0v0C198.6,44.9,198.5,44.9,198.3,44.8
			C198.2,44.9,198.2,44.8,198.3,44.8z M197.3,49.5c0.5-0.3,1.9-0.4,1.9-0.2c0,0.1-0.2,0.2-0.4,0.3v0c-0.2,0.1-0.7,0.2-1.2,0.2
			l-0.8,0L197.3,49.5z M195.9,47.3c0.1,0,0.3,0,0.4,0c0.1,0,0,0.1-0.3,0.1C195.8,47.4,195.7,47.3,195.9,47.3z M191,47.7
			c0-0.1,0.1-0.1,0.2-0.1c0,0,0.1,0.1,0.1,0.1s-0.1,0.1-0.2,0.1C191,47.8,191,47.8,191,47.7z M190.6,38.6c0.1,0,0.2,0,0.3,0l0,0
			C190.9,38.7,190.9,38.7,190.6,38.6C190.5,38.7,190.5,38.7,190.6,38.6z M187.9,38.9c0.4,0,1,0,1.4-0.1c0.5,0,0.7,0,0.5,0.1
			c-0.4,0.2-2.6,0.4-2.6,0.2C187.2,38.9,187.4,38.9,187.9,38.9z M196,49.2c0.6-0.1,0.7,0,0.4,0.4c-0.1,0.2-0.5,0.3-1.7,0.3
			c-0.9,0-1.5,0-1.5-0.1c0-0.1-0.1-0.1-0.3,0h0c-0.5,0.1-9,0.1-12.2,0c-3.5-0.1-2-0.3,2.9-0.3C188.3,49.6,194.9,49.4,196,49.2z
			 M181.8,49.1l0.5,0c0.3,0,0.5,0,0.5,0.1c0,0.1,0,0.1,0,0.1c0,0-0.3-0.1-0.5-0.1L181.8,49.1z M183.2,47.4c0.2,0,0.5,0,0.7,0
			c0.2,0,0,0.1-0.3,0.1S183.1,47.5,183.2,47.4z M182.7,33.8c0.2,0,0.5,0,0.7,0c0.2,0,0,0.1-0.3,0.1S182.5,33.8,182.7,33.8z M186,38
			c0.2,0.1,0.2,0.2,0,0.2c-0.2,0-0.4,0-0.6,0.1c-0.6,0.1-3.8,0.3-3.7,0.2C181.9,38.2,185.7,37.8,186,38z M180.7,33.9
			c0.1,0,0.1,0.1,0.1,0.1s-0.1,0.1-0.2,0.1c0,0-0.1-0.1-0.1-0.1S180.6,33.9,180.7,33.9z M182.4,45.6c0.2,0.1-0.7,0.1-2.1,0.1
			c-1.6,0-2.5,0-2.5-0.1C177.8,45.5,181.9,45.5,182.4,45.6z M178.9,35.3L178.9,35.3c0,0,0,0.1-0.2,0.1c-0.2,0-0.2,0-0.1-0.1
			C178.7,35.2,178.8,35.2,178.9,35.3z M176.8,33.2c0.4-0.1,1.1-0.1,1.5,0v0c0.6,0.1,0.5,0.1-0.7,0.1
			C176.5,33.3,176.3,33.2,176.8,33.2z M176.6,34.1c0.1,0,0.2,0,0.3,0C176.9,34.1,176.8,34.2,176.6,34.1
			C176.5,34.2,176.5,34.1,176.6,34.1z M175.3,33.2c0.1,0,0.3,0,0.4,0c0.1,0,0,0.1-0.2,0.1C175.3,33.3,175.2,33.2,175.3,33.2z
			 M175.1,34.1c0.2,0,0.5,0,0.7,0c0.2,0,0,0.1-0.3,0.1S175,34.1,175.1,34.1z M174.5,35.2c0.2-0.1,3,0,3.1,0.1l0,0
			c0.1,0.1-1.7,0.1-2.4,0.1C174.7,35.3,174.4,35.2,174.5,35.2z M175.5,40.9c0.1,0.1-0.1,0.1-0.5,0.2c-0.4,0-0.8,0-0.8,0
			C174,40.9,175.2,40.8,175.5,40.9z M174.9,45.7L174.9,45.7c0,0-0.3,0.1-0.7,0.1c-0.4,0-0.7,0-0.7-0.1
			C173.6,45.6,174.8,45.6,174.9,45.7z M172.4,34.4c0.7,0,1.3,0,1.3,0h0c0,0.1-0.7,0.2-1.7,0.1l-1-0.1L172.4,34.4z M164.5,34.3
			c1,0,1.9,0,1.8,0.1c-0.2,0.2-3.7,0.2-3.7,0.1C162.6,34.4,163.3,34.3,164.5,34.3z M161.6,34.4c0.1-0.1,0.2-0.1,0.3,0
			c0.1,0.1,0.1,0.2-0.2,0.2S161.4,34.6,161.6,34.4z M159.8,34.5c0.2,0,0.5,0,0.7,0h0c0.2,0,0,0.1-0.3,0.1
			C159.8,34.6,159.6,34.6,159.8,34.5z M151.7,16.2c0.1,0,0.3,0,0.4,0c0.1,0,0,0.1-0.2,0.1C151.7,16.2,151.6,16.2,151.7,16.2z
			 M148.3,35.3c0.1,0,0,0.1-0.3,0.1c-0.3,0-0.4,0-0.3-0.1C147.9,35.2,148.1,35.2,148.3,35.3z M147,16.3c0.2,0,0.5,0,0.7,0v0
			c0.2,0,0,0.1-0.4,0.1C147,16.4,146.8,16.3,147,16.3z M125.8,37.7c2.7-0.3,6.1-0.6,7.7-0.8c0.6-0.1,1.5-0.2,2-0.2
			c0.6,0,1.4-0.2,2-0.2c0.5-0.1,1.5-0.2,2.2-0.2c2-0.1,4.5-0.3,4.8-0.4c0.1,0,0.6-0.1,1.2-0.2c0.7-0.1,0.9,0,0.7,0.1
			c-0.4,0.2-0.2,0.4,0.3,0.3c0.2-0.1,1.2-0.2,2.2-0.2s2.7-0.2,3.9-0.3c2-0.2,2.1-0.2,2.3,0c0.1,0.2,0.3,0.2,0.4,0.1
			c0.1-0.1,0.1-0.1,0-0.2c-0.3-0.2,5.2-0.6,8.2-0.6c1.8,0,2.4,0.2,1,0.2c-0.4,0-0.8,0.1-1,0.2c-0.2,0.1,0.5,0.1,2.4,0.1
			c1.5-0.1,2.9-0.1,3.3-0.1c0.3,0,0.6,0,0.6-0.1c0-0.2,3.9-0.1,4.1,0.1c0.1,0.1,0.1,0.2-0.3,0.2c-0.3,0-0.8,0-1.1,0
			c-0.3,0-1.7,0.1-3,0.1c-1.4,0.1-3.1,0.1-4,0.2s-2.6,0.1-3.9,0.1c-5,0.1-8.2,0.3-11.8,0.6c-0.5,0-1.4,0.1-2.1,0.2
			c-2.2,0.2-5,0.5-5.3,0.6c-0.2,0.1-0.3,0.1-0.1-0.1c0.2-0.1,0.2-0.2-0.1-0.1c-0.2,0-1.1,0.1-2,0.1c-1.6,0.1-1.6,0.1-0.9-0.1
			c0.4-0.1,1.1-0.2,1.5-0.3c1.5-0.2,1.9-0.2,1.9-0.4c0-0.1-0.1-0.1-0.1-0.1c-0.1,0-0.8,0.1-1.6,0.2c-0.8,0-2,0.2-2.7,0.3
			c-1.1,0.2-3.1,0.4-4.3,0.6c-0.2,0-0.5,0.1-0.6,0.1c-0.3,0.1-1.9,0.3-3.1,0.3c-0.5,0-2.1,0.1-3.7,0.2l0,0c-1.5,0.1-3,0.2-3.3,0.2
			c-0.3,0-0.8,0-1.1,0C121.4,38,121.2,38.1,125.8,37.7z M120.2,17.6c0.1,0,0.2,0,0.3,0h0C120.6,17.7,120.5,17.7,120.2,17.6
			C120.2,17.7,120.1,17.7,120.2,17.6z M117.5,38.3c0.1,0,0.2,0,0.3,0h0C117.8,38.4,117.7,38.4,117.5,38.3
			C117.4,38.4,117.4,38.4,117.5,38.3z M120.3,48.6c0,0-0.9,0.1-2.2,0.2c-1.3,0.1-2.5,0.1-2.8,0.1c-0.3,0-0.5,0-0.5-0.1
			C114.9,48.7,120.2,48.4,120.3,48.6z M113.8,49.2c-0.2,0-0.4-0.3-0.3-0.4c0.1-0.1,0.5,0.1,0.5,0.2C114.1,49.1,114,49.2,113.8,49.2z
			 M112,44.9c0.4-0.1,1-0.1,1.4-0.1l0.7,0l-0.7,0.1v0c-0.4,0.1-1,0.1-1.4,0.1l-0.7,0L112,44.9z M110.2,49.1c0,0.1-0.4,0.1-0.8,0.1
			c-0.4,0-0.7,0-0.7,0C108.8,49.1,110.3,49,110.2,49.1z M194.8,9.2c0.9,0,1.4,0.1,1.4,0.3v0c0,0.2-1,0.2-1.1,0
			c-0.1-0.1-0.2-0.1-0.4-0.1c-0.2,0-0.4,0-0.5-0.1C194.1,9.3,194.4,9.2,194.8,9.2z M192.1,9.5c0.1,0,0.4,0,0.7,0s0.6,0.1,0.6,0.1v0
			c0,0.1-0.3,0.1-0.7,0.1c-0.5,0-0.7-0.1-0.7-0.2C192,9.6,192.1,9.5,192.1,9.5z M190.1,9.4c1.5,0,2.1,0.1,1.4,0.3
			c-0.5,0.1-3.6,0.1-3.6,0C187.9,9.5,188.4,9.4,190.1,9.4z M185.8,10.7c-0.7,0-1.2-0.1-1.2-0.1c0-0.1,0.5-0.1,1.2-0.1
			s1.2,0.1,1.2,0.1C187,10.6,186.5,10.7,185.8,10.7z M185.9,9.6c0.5-0.1,0.8-0.1,1,0c0.3,0.1,0.1,0.2-0.7,0.1l-1,0L185.9,9.6z
			 M183.9,9.8c0.2,0,0.5,0,0.7,0v0c0.2,0,0,0.1-0.4,0.1C183.8,9.9,183.7,9.9,183.9,9.8z M181.9,9.4c0.3,0,0.4,0,0.1,0.1v0
			c-0.4,0.2-0.5,0.2-0.5,0C181.5,9.5,181.7,9.4,181.9,9.4z M179.5,9.4c1.2-0.1,1.6-0.1,1.6,0.1c0,0.1-0.5,0.2-1.7,0.2
			c-0.9,0-1.7,0-1.6-0.1C177.8,9.6,178.6,9.5,179.5,9.4z M175.1,9.7c0-0.1,0.1-0.1,0.2-0.1c0,0,0.1,0.1,0.1,0.1
			c0,0.1-0.1,0.1-0.2,0.1C175.1,9.8,175.1,9.7,175.1,9.7z M174.1,9.7c0.1,0,0.3,0,0.4,0c0.1,0,0,0.1-0.2,0.1
			C174.1,9.8,174,9.7,174.1,9.7z M175.5,11c1.5-0.2,8.1-0.4,7.9-0.2c-0.2,0.2-2.5,0.4-5,0.5c-1.3,0-3,0.1-3.6,0.2
			C173.3,11.5,173.7,11.2,175.5,11z M172.6,11.1C172.5,11.1,172.4,11.1,172.6,11.1c0-0.1,0.1-0.1,0.2-0.1l0,0
			C172.9,11.1,172.8,11.1,172.6,11.1z M171.8,9.7c0.5-0.1,1-0.1,1.2,0c0.3,0.1,0.3,0.1-0.2,0.1h0c-0.3,0-0.9,0.1-1.3,0.1
			C170.5,10,170.7,9.9,171.8,9.7z M153.2,13c0.1-0.1,0.6-0.2,1.1-0.3c2-0.3,3.6-0.4,4.7-0.5c0.7,0,1.3-0.1,1.3-0.2
			c0.1-0.2,2-0.4,5.1-0.6c1.3-0.1,2.5-0.2,2.7-0.2c0.6-0.1,3.1-0.2,3.3-0.1c0.1,0.1-0.7,0.2-1.7,0.3c-1,0.1-2.1,0.2-2.4,0.2
			c-0.3,0-1.5,0.1-2.8,0.2c-1.3,0.1-2.7,0.3-3.2,0.4c-0.5,0.1-1.8,0.3-2.8,0.4c-1,0.1-2.3,0.2-2.8,0.3h0
			C153.4,13.2,153,13.2,153.2,13z M93.1,49.3c-0.1,0.1-0.3,0.1-0.5,0.1c-0.2,0-0.3,0-0.1-0.1c0.1-0.1,0.3-0.1,0.5-0.1
			C93.3,49.2,93.3,49.2,93.1,49.3z M93.9,47.4c-0.9,0.2-3.4,0.3-3,0.2c0.2-0.1,1-0.2,2-0.2C93.8,47.3,94.3,47.3,93.9,47.4z
			 M100.4,17.4c0.3,0,0.7-0.1,0.9-0.2c0.3-0.1,0.5,0,0.5,0.1c0,0.1-0.3,0.2-0.7,0.2h0c-0.4,0.1-0.8,0.1-0.9,0.2
			c-0.1,0-0.3,0-0.3-0.1C99.9,17.5,100.1,17.4,100.4,17.4z M100.8,49.1c1.5,0,2.6-0.1,2.6-0.2c0.1-0.2,0.6-0.2,2.9-0.1
			c1.9,0.1,2.5,0.2,1.5,0.3c-0.4,0.1-0.9,0.1-1.1,0.2c-0.3,0.1-0.5,0-0.5-0.1c-0.1-0.1-0.4-0.2-1-0.1c-0.7,0-0.8,0.1-0.5,0.2
			c0.3,0.1,0.1,0.1-0.7,0.1l0,0c-0.5,0-1.7,0-2.6,0.1c-1,0.1-1.6,0.1-1.6,0c0.1-0.1-0.5-0.1-1.6-0.1c-1.7,0.1-2.2,0-0.7-0.2
			C97.9,49.2,99.4,49.1,100.8,49.1z M98.5,47.2c0.1,0,0,0.1-0.3,0.1c-0.2,0-0.3,0-0.2-0.1C98.2,47.1,98.4,47.1,98.5,47.2z M97.7,45
			c0.1,0,0.3,0,0.4,0c0.1,0,0,0.1-0.2,0.1C97.7,45,97.6,45,97.7,45z M95.5,47.2c0.8-0.2,2.3-0.2,2.2,0v0c-0.1,0.1-0.7,0.1-1.4,0.1
			C95.1,47.4,95,47.3,95.5,47.2z M90.2,45.5c0.3-0.3,1.3-0.4,2.8-0.4l1.4,0l-0.9,0.2v0C92,45.6,90,45.7,90.2,45.5z M90.4,49
			c-0.3,0.2-0.8,0.2-0.9,0c-0.1-0.1,0.2-0.1,0.5-0.1C90.4,48.9,90.5,48.9,90.4,49z M88.3,18.6c0.1-0.1,0.5-0.1,0.8-0.1
			c0.5,0,0.5,0,0.3,0.1C89,18.8,88.1,18.8,88.3,18.6z M88.3,41.8c0.2-0.1,0.8-0.2,1.2-0.2c0.1,0,0,0.1-0.2,0.1
			C88.6,42,88.1,42,88.3,41.8z M64.9,46.3c0.1,0,0.2,0,0.2,0.1c0,0.1-0.1,0.1-0.2,0.1c-0.1,0-0.2,0-0.2-0.1
			C64.6,46.4,64.7,46.4,64.9,46.3z M62,49.6c-0.2,0-0.3,0-0.2-0.1c0.1,0,0.3,0,0.4,0C62.3,49.5,62.2,49.6,62,49.6z M61.4,47.9
			c0-0.1,0.3-0.2,0.8-0.2c1-0.1,1.2,0.1,0.3,0.2C61.8,48,61.5,48,61.4,47.9z M63.3,49.4c-0.2,0-0.3,0-0.2-0.1c0.1,0,0.3,0,0.4,0
			C63.6,49.4,63.5,49.4,63.3,49.4z M65.9,49.4C65.7,49.4,65.6,49.4,65.9,49.4c0-0.1,0.1-0.1,0.2-0.1v0C66.1,49.4,66,49.5,65.9,49.4z
			 M67.7,49c-0.2,0.1-1.4,0.2-1.3,0.1c0,0,0.4-0.1,0.8-0.2C67.7,48.9,67.8,48.9,67.7,49z M66.5,47.3L66.5,47.3
			c-1.5,0.3-1.9,0.3-1.3,0l0.4-0.2l-0.6,0c-0.8,0.1-3-0.3-2.5-0.4c0.7-0.2,2.6-0.1,2.9,0.1c0.3,0.2,0.7,0.2,2,0
			C68.6,46.7,67.8,47.1,66.5,47.3z M65.6,17.6l0.3-0.3c0.4-0.3,1.3-0.4,1.3-0.2c0,0.1-0.2,0.2-0.5,0.3l0,0c-0.3,0.1-0.6,0.2-0.8,0.2
			L65.6,17.6z M69.9,46.6c-0.2,0.1-0.6,0.2-0.9,0.2c-0.5,0.1-0.6,0-0.5-0.1c0.1-0.1,0.2-0.2,0.4-0.1c0.2,0.1,0.3,0,0.4-0.1
			c0.1-0.1,0.3-0.2,0.5-0.1C70.2,46.4,70.2,46.5,69.9,46.6z M69.5,16.2l0.6-0.2c0.7-0.2,1.6-0.3,1.4-0.1c-0.1,0.1-0.6,0.2-1.1,0.2
			L69.5,16.2z M73.1,45.6c-0.1,0-0.2,0.1-0.2,0.1S72.6,46,72.4,46c-0.3,0.1-0.5,0.2-0.6,0.2h0c-0.1,0.2-0.4,0.2-0.3-0.1
			c0-0.1,0.1-0.3,0.3-0.4c0.4-0.3,1.8-0.5,1.6-0.3C73.3,45.6,73.2,45.6,73.1,45.6z M75.9,48.1c-0.3,0-0.4,0-0.3-0.1
			c0.1,0,0.4,0,0.5,0C76.3,48.1,76.2,48.1,75.9,48.1z M79.7,48c0,0.1-0.2,0.1-0.4,0.1c-0.2,0-0.9,0.1-1.5,0.3
			c-1.4,0.3-1.5,0.3-1.4,0.2c0-0.1,0.4-0.2,0.8-0.4C78.2,48,79.8,47.8,79.7,48z M77.9,45.9c-0.8,0.1-2,0.3-2.6,0.3
			c-0.6,0.1-1.3,0.1-1.6,0.2c-0.4,0-0.5,0-0.3-0.2c0.1-0.1,0.2-0.2,0.3-0.2s0.4-0.2,0.7-0.4c0.3-0.2,0.7-0.4,0.8-0.3
			c0.1,0,1.2,0,2.5,0c1.3-0.1,2.4-0.1,2.5,0C80.6,45.3,79.4,45.7,77.9,45.9z M75.9,13.9h-0.3l0.3-0.2c0.3-0.2,0.6-0.2,0.4,0.1v0
			C76.2,13.8,76,13.9,75.9,13.9z M77.9,43.5c0-0.1,2-0.9,2.2-0.8c0.1,0-0.2,0.2-0.6,0.5h0C78.8,43.5,77.9,43.7,77.9,43.5z
			 M85.8,51.6C85.6,51.6,85.6,51.6,85.8,51.6c0-0.1,0.1-0.1,0.2-0.1v0C86,51.6,85.9,51.7,85.8,51.6z M86.6,49.2
			c-0.9,0.2-3.7,0.3-3.8,0.2c-0.2-0.3,1.8-0.5,3.9-0.3l0.4,0L86.6,49.2z M85.8,42.7c0.1,0,0.2,0,0.3,0
			C86.2,42.8,86.1,42.8,85.8,42.7C85.8,42.8,85.7,42.8,85.8,42.7z M88.1,42.1c0.1,0-0.1,0.1-0.5,0.2c-0.4,0.1-0.7,0.1-0.7,0
			C86.9,42.3,87.8,42.1,88.1,42.1z M85.2,41.7c0.4-0.2,1.7-0.4,1.7-0.2c0,0.1-0.1,0.2-0.3,0.2v0c-0.1,0-0.6,0-1,0.1
			C85.1,41.8,85,41.8,85.2,41.7z M81,42.8c0.3-0.1,0.6-0.2,0.8-0.4c0.1-0.1,0.7-0.3,1.3-0.4c1.1-0.2,2.9-0.2,2.8,0
			c-0.3,0.2-3.1,1-4,1.1v0c-0.6,0-1.2,0.1-1.4,0.2C79.8,43.5,80.3,43,81,42.8z M80.4,15.3c0.4-0.1,1.4-0.2,2.2-0.3
			c0.8-0.1,1.4-0.2,1.6-0.3c0.1-0.1,0.3-0.2,0.4-0.2c0.1,0,0.4,0,0.6-0.1c0.5-0.1,0.4,0.2-0.1,0.4c-0.7,0.3-0.4,0.4,0.6,0.3
			c1.9-0.3,4.1-0.6,4.8-0.7c1.4-0.2,1.8-0.3,1.9-0.1c0,0.1,0,0.1-0.2,0.1s-0.6,0.1-1,0.2c-0.9,0.3-3.9,0.8-4.5,0.8
			c-0.3,0-0.7,0-0.9,0.1c-0.2,0-0.6,0.1-0.8,0.1c-0.2,0-0.3,0.1-0.2,0.2c0,0.1,0,0.1-0.1,0.1v0c-0.1,0-0.3,0-0.4,0.1
			c-0.1,0.1-0.2,0-0.2-0.1c0-0.2-0.2-0.2-1.6-0.2c-0.9,0-1.9,0-2.1,0C79.6,15.5,79.6,15.5,80.4,15.3z M81.4,16
			c0.8-0.1,1.6-0.1,1.7-0.2c0.1,0,0.2,0,0.3,0.1c0,0.2-0.2,0.2-2.1,0.7c-0.7,0.2-2-3.4-2.9-3.2c-1.9,0.4-1.7,0.4-1.8,0.2
			c-0.2-0.3,0.1-0.4,1.3-0.7c0.6-0.1,1.3,3.5,1.6,3.4C79.7,16.2,80.6,16,81.4,16z M78.9,12.2c0,0-0.1,0.1-0.3,0.2
			c-0.5,0.2-0.8,0.2-0.8,0C77.8,12.3,78.8,12.1,78.9,12.2z M62.4,16L62.4,16c-0.2,0.3-0.5,0.4-1,0.5c-0.4,0-0.7,0-0.7,0
			c0-0.1,1.9-1,1.9-0.9C62.7,15.6,62.6,15.8,62.4,16z M64.6,13.6c0.6-0.1,1-0.1,0.8-0.1c-1.2-0.1,1.3-0.5,3.7-0.7
			c0.4,0,1-0.1,1.4-0.2c1.3-0.3,1.1,0-0.4,0.4c-0.3,0.1-0.7,0.1-0.9,0.1c-0.2,0-0.3,0-0.4,0.1c0,0.1-0.2,0.1-0.4,0.1
			c-0.2,0-0.9,0.2-1.6,0.4l0,0c-1.3,0.4-3.7,0.7-4.1,0.5C62.5,14,63.3,13.7,64.6,13.6z M63,16.2c-0.1,0-0.2-0.1-0.1-0.1
			c0-0.1,0.2-0.1,0.2-0.1s0.1,0.1,0.1,0.1C63.2,16.2,63.1,16.2,63,16.2z M63.2,14.8c0-0.2,0.7-0.4,0.9-0.2c0.1,0.1,0.1,0.2-0.2,0.2
			c-0.2,0-0.4,0-0.5,0.1C63.3,14.9,63.2,14.9,63.2,14.8z M63.3,15.7c0-0.4,3.1-1.1,4.6-1.1c0.4,0,0.8-0.1,0.9-0.2
			c0.2-0.1,0.9-0.3,1.6-0.4c0.8-0.1,1.4-0.3,1.5-0.4c0.2-0.2,0.9-0.3,2.1-0.5c1-0.1,2-0.4,2.2-0.5c0.2-0.1,0.5-0.2,0.7-0.2
			c0.5,0.1,0.6,0.4,0.2,0.4c-0.2,0-0.7,0.2-1.2,0.4c-0.5,0.2-1.1,0.4-1.4,0.4c-0.3,0-0.7,0.1-1,0.2c-0.3,0.1-1,0.3-1.6,0.4
			c-0.6,0.1-1.3,0.3-1.7,0.4c-0.3,0.1-0.9,0.2-1.3,0.3c-0.4,0-1.1,0.2-1.6,0.3c-0.5,0.1-1.1,0.2-1.4,0.2c-0.3-0.1-0.7,0-1.2,0.2v0
			C64.1,15.8,63.3,15.9,63.3,15.7z M52.1,42.1c0.4-0.2,0.7-0.2,0.7,0c0,0.1-0.2,0.1-0.5,0.1C51.9,42.2,51.9,42.2,52.1,42.1z
			 M49.7,41.9l0.4,0.1l-0.4,0.2v0c-0.6,0.3-1.7,0.4-1.7,0.2C48,42.1,49.2,41.8,49.7,41.9z M47.6,22.5c0.1,0,0.2,0,0.3,0
			C47.9,22.5,47.8,22.5,47.6,22.5C47.5,22.5,47.4,22.5,47.6,22.5z M47,22.6c0.1,0,0.2,0,0.3,0C47.3,22.7,47.2,22.7,47,22.6
			C46.9,22.7,46.9,22.6,47,22.6z M43.6,47.1c-0.8,0.4-1,0.4-0.6,0c0.3-0.3,1.2-0.6,1.2-0.5C44.3,46.7,44,46.9,43.6,47.1z M44.7,45.8
			c-0.2,0-0.3,0-0.3-0.1c0-0.1,0.1-0.1,0.3-0.1s0.3,0,0.3,0.1C45,45.7,44.9,45.8,44.7,45.8z M45.7,21.8c0.1,0,0.2,0,0.4-0.1
			c0.1,0,0.2,0,0.2,0c0,0.1-0.2,0.2-0.4,0.3c-0.3,0.1-0.4,0.1-0.4,0C45.6,21.9,45.6,21.8,45.7,21.8z M45.5,42.1
			c0.1-0.2,1.1-0.4,1.2-0.2c0.1,0.1,0,0.2-0.1,0.2C46.3,42.3,45.4,42.3,45.5,42.1z M45.5,43.6c0.5-0.1,1-0.1,1-0.1
			c0.2,0.2-0.3,0.7-0.7,0.7c-0.9,0.1-2.4,0.2-2.7,0.1c-0.3-0.1-0.3-0.1,0.1-0.1c0.7,0,2.2-0.4,1.7-0.5C44.8,43.7,45,43.6,45.5,43.6z
			 M43.1,27.2c0.2-0.1,0.4,0,0.4,0.1c0,0.1-0.2,0.1-0.5,0.1C42.6,27.4,42.6,27.3,43.1,27.2z M42.9,27.6c0.3,0,0.3,0,0.1,0.1
			c-0.3,0.2-0.4,0.2-0.4,0C42.5,27.6,42.7,27.5,42.9,27.6z M43.7,41.2c1.3-0.1,1.5-0.1,1,0.2c-0.2,0.1-0.7,0.2-1.2,0.3
			c-0.8,0.1-0.9,0-0.9-0.1C42.5,41.3,42.8,41.2,43.7,41.2z M40.3,40.5c0.1,0,0.2,0,0.3,0C40.7,40.6,40.6,40.6,40.3,40.5
			C40.3,40.6,40.2,40.6,40.3,40.5z M41.9,42.3c-0.1,0.1-0.6,0.1-1.1,0.1c-0.7,0-0.8,0-0.4-0.1C41.1,42.1,42.2,42.1,41.9,42.3z
			 M39.8,27.9c0.2,0,0.4-0.1,0.5-0.2c0.1-0.1,0.3-0.1,0.5,0c0.2,0.1,0.3,0.1,0.1,0.2c-0.1,0.1-0.5,0.1-0.8,0.1
			C39.7,28,39.6,27.9,39.8,27.9z M17,35.1c-0.1,0-0.2,0-0.2-0.1s0.1-0.1,0.2-0.1c0.1,0,0.2,0,0.2,0.1C17.2,35,17.1,35.1,17,35.1z
			 M27.5,29L27.5,29c-0.4,0.1-1,0.1-1.2,0.1c-0.4,0-0.5,0-0.3-0.2c0.1-0.1,0.4-0.3,0.6-0.3c0.2-0.1,0.4-0.2,0.5-0.4
			C27,28,27.1,28,27.6,28c0.5,0,0.6,0.1,0.7,0.4C28.4,28.9,28.4,28.9,27.5,29z M36.8,28.1c0.1-0.1,0.2-0.1,0.4,0
			c0.2,0.1,0.2,0.2-0.2,0.2C36.8,28.3,36.7,28.2,36.8,28.1z M34.1,39c0.2,0,0.6-0.1,0.8-0.2c0.4-0.1,0.3-0.1-0.1,0.3
			c-0.4,0.4-1.5,0.6-1.5,0.2C33.3,39.1,33.4,39.1,34.1,39z M33,39.3c0,0,0,0.1,0,0.2c-0.1,0.2-0.5,0.2-0.5,0
			C32.6,39.3,32.9,39.2,33,39.3z"/>
		<path class="st0" d="M147.8,37.8c-0.1,0,0,0.1,0.2,0.1c0.2,0,0.3,0,0.2-0.1C148.1,37.7,147.9,37.7,147.8,37.8z"/>
		<path class="st0" d="M15.6,40.6c-0.3,0.2-0.2,0.2,0.2,0.1c0.6-0.2,0.7-0.3,0.3-0.3C16,40.4,15.7,40.4,15.6,40.6z"/>
		<path class="st0" d="M27,46.1c-0.4,0-1.3,0.3-1.4,0.6c-0.1,0.2,0.1,0.2,0.3,0c0.1-0.1,0.5-0.3,0.8-0.4
			C27.1,46.2,27.2,46.1,27,46.1z"/>
		<path class="st0" d="M26.9,49.2c-0.2,0,0,0.1,0.3,0.1c0.4,0,0.5,0,0.3-0.1C27.4,49.2,27.1,49.2,26.9,49.2z"/>
		<path class="st0" d="M134.7,50.1c-0.1,0,0,0.1,0.2,0.1c0.2,0,0.3,0,0.2-0.1C134.9,50.1,134.8,50.1,134.7,50.1z"/>
		<path class="st0" d="M22.2,46.6c-0.1,0.1,0,0.1,0.1,0.1c0.2,0,0.6-0.2,0.9-0.3c0.4-0.1,0.8-0.2,0.9-0.3c0.3-0.1,0.3-0.1-0.1-0.1
			C23.7,45.9,22.4,46.3,22.2,46.6z"/>
		<path class="st0" d="M168.6,49.4c-0.1,0-0.3,0-0.4,0c-0.1,0-0.1,0.1,0.2,0.1C168.6,49.4,168.7,49.4,168.6,49.4z"/>
		<path class="st0" d="M101.1,14c0,0.2,0,0.3,0.2,0.3c0.3,0,1-0.5,0.9-0.7C102,13.4,101.1,13.7,101.1,14z"/>
		<path class="st0" d="M98.2,13.6c-0.1,0.1-0.3,0.2-0.4,0.3c-0.2,0.1-0.2,0.2-0.1,0.2c0.1,0,0.3-0.1,0.5-0.2
			c0.2-0.2,0.7-0.3,1.4-0.4c0.6-0.1,1.2-0.2,1.3-0.2C101,13.3,98.4,13.5,98.2,13.6z"/>
		<path class="st0" d="M97,16.3c-0.1,0-0.1,0.1,0.2,0.1c0.2,0,0.4,0,0.3-0.1C97.4,16.3,97.2,16.3,97,16.3z"/>
		<path class="st0" d="M96.2,14.1c0.2,0,0.2,0,0.2-0.1C96.3,13.9,96.2,13.9,96.2,14.1L96.2,14.1C96,14,96,14,96.2,14.1z"/>
		<path class="st0" d="M96.2,17.1c0.2,0,0.2,0,0.2-0.1C96.3,17,96.2,17,96.2,17.1L96.2,17.1C96,17.1,96,17.1,96.2,17.1z"/>
		<path class="st0" d="M90.5,17.1c-0.3,0.1-0.2,0.1,0.3,0.1c0.5,0,0.6,0,0.3-0.1C90.9,17.1,90.7,17.1,90.5,17.1z"/>
		<path class="st0" d="M72.4,12.2C72.3,12.2,72.3,12.3,72.4,12.2c0.2,0.1,0.3,0.1,0.3,0C72.6,12.1,72.5,12.1,72.4,12.2z"/>
		<path class="st0" d="M59.6,18c0.1,0,0.3-0.1,0.3-0.1c0.1-0.2-0.1-0.2-0.4,0h0C59.4,18,59.4,18,59.6,18z"/>
		<path class="st0" d="M21,37.8c0.1,0.2,0.2,0.2,0.2,0.1c0-0.1,0.3-0.2,0.6-0.3c0.3-0.1,0.5-0.2,0.6-0.2c0-0.1,0.4-0.1,0.7-0.1
			c0.5,0,0.5,0,0.2-0.1c-0.4-0.1-1.1-0.1-1.9,0.2C20.9,37.4,20.9,37.5,21,37.8z"/>
		<path class="st0" d="M19.9,37.3c-0.2,0.2,0.1,0.2,0.7-0.1l0.5-0.2L20.6,37C20.3,37.1,20,37.2,19.9,37.3z"/>
		<path class="st0" d="M29.4,36.4c-0.1,0-0.2,0.1-0.2,0.2c0,0.1,0.1,0.2,0.4,0.2c0.2,0,0.3,0,0.2-0.1C29.5,36.7,29.4,36.6,29.4,36.4
			C29.5,36.4,29.5,36.4,29.4,36.4z"/>
		<path class="st0" d="M26.7,37.9c0.3,0,0.5-0.1,0.5-0.1c0-0.2-0.6-0.2-0.9,0C26.2,37.8,26.3,37.8,26.7,37.9z"/>
		<path class="st0" d="M26.8,35.7c-0.1,0-0.3,0-0.4,0c-0.1,0-0.1,0.1,0.2,0.1C26.8,35.8,26.9,35.7,26.8,35.7z"/>
		<path class="st0" d="M32.9,35.3c-0.1,0-0.3,0-0.4,0c-0.1,0-0.1,0.1,0.2,0.1C32.9,35.3,33,35.3,32.9,35.3z"/>
		<path class="st0" d="M30.9,35.5c0.2,0,0.2,0,0.2-0.1C31,35.4,30.9,35.4,30.9,35.5L30.9,35.5C30.7,35.5,30.7,35.5,30.9,35.5z"/>
		<path class="st0" d="M29.2,35.3c-0.4,0.1-0.6,0.3-0.6,0.3c0,0,0.1,0,0.3,0c0.2,0,0.4-0.1,0.6-0.1c0.1,0,0.3-0.1,0.3-0.2
			C29.8,35.1,29.7,35.1,29.2,35.3z"/>
		<path class="st0" d="M99.7,14.2c0.3,0,0.5-0.1,0.5-0.1c0-0.1-0.7-0.1-0.9,0.1h0C99.3,14.2,99.5,14.2,99.7,14.2z"/>
		<polygon class="st0" points="19,27.5 19,27.5 19,27.5 		"/>
		<path class="st0" d="M20.2,26.9c0-0.2-0.2-0.4-0.3-0.5c-0.2-0.1-0.2-0.1-0.1,0.3c0.1,0.4,0,0.5-0.4,0.6c-0.2,0.1-0.4,0.2-0.4,0.2
			c0,0.1,0.1,0.1,0.7-0.1C20.1,27.2,20.2,27.2,20.2,26.9z"/>
		<path class="st0" d="M20.5,26.7c0,0-0.1,0.1-0.1,0.2c0,0.1,0.1,0.2,0.1,0.2c0.1,0,0.1-0.1,0.1-0.2C20.6,26.8,20.5,26.7,20.5,26.7z
			"/>
		<path class="st0" d="M17.2,29.3c0,0.1,0.1,0.1,0.3,0c0.6-0.3,1.6-0.5,1.9-0.5c0.2,0,0.4-0.1,0.3-0.1C19.6,28.4,17.2,29,17.2,29.3z
			"/>
	</g>
	<g>
		<path class="st1" d="M71.5,40.2V22.1c0-0.9,0.2-1.6,0.6-2.1c0.4-0.5,1-0.7,1.6-0.7c0.7,0,1.2,0.2,1.7,0.7c0.4,0.5,0.6,1.2,0.6,2.1
			v18.1c0,1-0.2,1.7-0.6,2.1c-0.4,0.5-1,0.7-1.7,0.7c-0.7,0-1.2-0.2-1.6-0.7C71.7,41.9,71.5,41.2,71.5,40.2z"/>
		<path class="st1" d="M87.1,22.1l8.8,13.5V22c0-0.9,0.2-1.6,0.6-2c0.4-0.4,0.9-0.7,1.5-0.7c0.7,0,1.2,0.2,1.6,0.7s0.6,1.1,0.6,2V40
			c0,2-0.8,3-2.5,3c-0.4,0-0.8-0.1-1.1-0.2c-0.3-0.1-0.6-0.3-0.9-0.6c-0.3-0.3-0.6-0.6-0.8-0.9c-0.2-0.4-0.5-0.7-0.7-1.1l-8.6-13.4
			v13.5c0,0.9-0.2,1.5-0.6,2c-0.4,0.4-0.9,0.7-1.5,0.7c-0.6,0-1.2-0.2-1.6-0.7c-0.4-0.5-0.6-1.1-0.6-2V22.7c0-0.8,0.1-1.3,0.2-1.8
			c0.2-0.5,0.5-0.9,1-1.2c0.5-0.3,0.9-0.4,1.5-0.4c0.4,0,0.8,0.1,1.1,0.2c0.3,0.1,0.5,0.3,0.8,0.5s0.4,0.5,0.7,0.9
			C86.6,21.3,86.9,21.7,87.1,22.1z"/>
		<path class="st1" d="M105.3,40.2V22.1c0-0.9,0.2-1.6,0.6-2.1c0.4-0.5,1-0.7,1.6-0.7c0.7,0,1.2,0.2,1.7,0.7s0.6,1.2,0.6,2.1v18.1
			c0,1-0.2,1.7-0.6,2.1c-0.4,0.5-1,0.7-1.7,0.7c-0.7,0-1.2-0.2-1.6-0.7C105.5,41.9,105.3,41.2,105.3,40.2z"/>
		<path class="st2" d="M134.2,35.4c0,0.7-0.2,1.5-0.5,2.4c-0.4,0.9-0.9,1.7-1.7,2.5c-0.8,0.8-1.7,1.5-2.9,2
			c-1.2,0.5-2.6,0.8-4.1,0.8c-1.2,0-2.3-0.1-3.3-0.3c-1-0.2-1.9-0.6-2.7-1.1c-0.8-0.5-1.5-1.1-2.2-1.9c-0.6-0.7-1.1-1.5-1.5-2.4
			c-0.4-0.9-0.7-1.8-0.9-2.9c-0.2-1-0.3-2.1-0.3-3.2c0-1.8,0.3-3.5,0.8-5c0.5-1.5,1.3-2.7,2.3-3.8c1-1,2.1-1.8,3.5-2.4
			c1.3-0.5,2.7-0.8,4.2-0.8c1.8,0,3.5,0.4,4.9,1.1c1.4,0.7,2.5,1.7,3.3,2.7c0.8,1.1,1.1,2.1,1.1,3.1c0,0.5-0.2,1-0.6,1.4
			c-0.4,0.4-0.8,0.6-1.3,0.6c-0.6,0-1-0.1-1.3-0.4c-0.3-0.3-0.6-0.8-1-1.5c-0.6-1.1-1.3-2-2.1-2.6c-0.8-0.6-1.8-0.8-3-0.8
			c-1.9,0-3.4,0.7-4.5,2.2c-1.1,1.5-1.7,3.5-1.7,6.2c0,1.8,0.2,3.3,0.7,4.5c0.5,1.2,1.2,2.1,2.1,2.7c0.9,0.6,2,0.9,3.2,0.9
			c1.3,0,2.4-0.3,3.3-1c0.9-0.7,1.6-1.6,2.1-2.9c0.2-0.6,0.4-1.1,0.7-1.5c0.3-0.4,0.7-0.6,1.4-0.6c0.5,0,1,0.2,1.4,0.6
			S134.2,34.8,134.2,35.4z"/>
		<path class="st2" d="M138.5,40.2V22.1c0-0.9,0.2-1.6,0.6-2.1c0.4-0.5,1-0.7,1.6-0.7c0.7,0,1.2,0.2,1.7,0.7
			c0.4,0.5,0.6,1.2,0.6,2.1v18.1c0,1-0.2,1.7-0.6,2.1c-0.4,0.5-1,0.7-1.7,0.7c-0.7,0-1.2-0.2-1.6-0.7
			C138.7,41.9,138.5,41.2,138.5,40.2z"/>
		<path class="st2" d="M158.2,19.3c2.3,0,4.4,0.5,6,1.4c1.7,1,3,2.3,3.8,4.1c0.9,1.8,1.3,3.9,1.3,6.3c0,1.8-0.2,3.4-0.7,4.8
			c-0.5,1.5-1.2,2.7-2.1,3.8c-0.9,1.1-2.1,1.9-3.5,2.4c-1.4,0.6-3,0.8-4.7,0.8c-1.8,0-3.3-0.3-4.7-0.9s-2.6-1.4-3.5-2.5
			c-0.9-1.1-1.6-2.3-2.1-3.8c-0.5-1.5-0.7-3.1-0.7-4.8c0-1.8,0.2-3.4,0.7-4.9c0.5-1.5,1.2-2.7,2.2-3.8c0.9-1,2.1-1.8,3.5-2.4
			C154.9,19.6,156.4,19.3,158.2,19.3z M164.7,31.1c0-1.7-0.3-3.1-0.8-4.4c-0.5-1.2-1.3-2.2-2.3-2.8c-1-0.6-2.1-0.9-3.4-0.9
			c-0.9,0-1.8,0.2-2.5,0.5c-0.8,0.3-1.4,0.9-2,1.5c-0.6,0.7-1,1.5-1.3,2.6c-0.3,1-0.5,2.2-0.5,3.5c0,1.3,0.2,2.5,0.5,3.5
			c0.3,1.1,0.8,1.9,1.4,2.6c0.6,0.7,1.3,1.2,2,1.6c0.8,0.3,1.6,0.5,2.5,0.5c1.2,0,2.2-0.3,3.2-0.9c1-0.6,1.8-1.5,2.3-2.8
			C164.4,34.5,164.7,32.9,164.7,31.1z"/>
	</g>
</g>
<ellipse class="st2" cx="-2.9" cy="72.6" rx="20.4" ry="9.3"/>
</svg>
